<svg xmlns="http://www.w3.org/2000/svg" viewBox="-10 -10 760 970" font-family="Georgia, 'Times New Roman', serif">
  <path d="m 145.19699,518.60225 -0.81947,0.0149 -0.28308,0.93865 -1.17706,0.0596 -0.0298,0.67047 1.08765,0.77476 -0.77477,0.59601 0.44699,0.22349 0.0894,1.28133 -0.46188,0.44698 -0.43208,0.56617 0.34269,0.84925 0.62577,0.26819 0.28309,0.74496 -0.95356,-0.23839 -0.2235,-0.84925 -0.49167,-0.29799 -0.0149,-0.61086 -0.58108,-0.1192 1.31115,-0.52147 0.0149,-1.23663 -0.49168,-0.31289 -0.0298,-0.73011 -0.65558,0 -0.49167,1.37078 -0.96846,0.35758 0.47678,0.47678 0.58107,0 -0.52148,1.08764 0.55128,0.35758 0,1.04294 -1.31114,0.56622 -0.0149,1.57932 0.78966,0.47677 0.0447,0.92375 -0.41718,0.32778 -0.0745,-0.99824 -0.70027,-0.17879 -0.77476,0.67046 -1.65384,0 0.32779,0.34268 -1.07275,0.23839 -0.87906,-0.29798 -0.47678,0.47677 -0.95356,0.0745 -0.0745,0.47677 -1.07275,-0.80456 0.47678,-0.46187 0.14899,0.37248 1.14725,-0.11919 0.74497,-0.59597 0.71517,0.46187 0.67047,-0.78965 1.59423,0.20858 0.95356,-0.78965 0.25329,-1.81776 1.08765,-0.49167 0.0447,-0.75986 -0.61088,-0.50657 0,-0.90885 -0.41718,-0.23839 0,-0.65557 1.43033,-0.81945 -0.0149,-0.73011 -0.52147,-0.17879 -0.1192,-0.70027 -0.70026,0 -1.34095,1.19199 0.0596,1.05784 -1.07275,1.81771 -1.31115,0.64066 -0.10429,1.16214 -1.01316,0.55132 -1.34094,2.23488 -0.93866,-0.0894 -0.77477,0.65556 -0.0298,1.16214 -0.62577,0.31288 0.35758,0.86421 -1.46014,1.25153 0.0894,0.67046 0.53638,0.0297 0.38738,-1.25153 0.89396,-0.40228 0.37248,0.50657 0.98336,0 0.34269,0.37248 -1.50484,0.0149 0,0.77476 0.44698,0.14899 0.68537,0.56617 0.11919,1.10254 -0.84925,0.0149 -0.38739,0.65556 0.0149,-1.05784 -0.26819,-0.0445 -0.22349,0.52147 -0.50658,0.0148 -0.0149,0.98339 0.62578,0.52148 -1.16215,0.0445 0.0447,0.61087 0.67046,0.28308 0.0596,0.58107 0.89396,0.47677 0.62578,-0.64066 1.32604,-0.41718 -0.0149,0.67047 -1.13235,0.0297 -0.43208,0.92375 -0.74497,0 -0.16389,-0.34268 -0.56618,-0.0894 -0.87906,0.38737 -0.0894,1.05785 -0.64067,0.16389 0.52148,0.68541 0.65557,-0.26823 -0.65557,0.894 -0.37248,0 -0.0298,-0.44698 -0.41719,-0.70031 -0.95355,1.11749 -0.96846,0.47678 -0.0149,0.47677 3.41195,-0.0148 0.70027,0.53637 -0.20859,0.74496 -0.62577,-0.99824 -1.05786,0.0894 0.0149,0.43208 0.59598,0.22349 -1.86242,0.11919 -0.73007,0.61087 -1.37074,-0.40228 -1.50484,0.73006 0.149,0.53637 0.71517,-0.75986 1.22174,-0.13409 0.34269,0.96845 0.86416,-0.81946 0.0894,0.23839 -0.44698,0.67046 -1.14726,0.1043 -0.10429,0.58112 -0.96846,0.0894 -0.47678,0.59597 0.59598,0.43208 0.22349,0.59596 0.83436,-0.53637 1.54954,0.0745 -1.14726,0.0297 -0.58107,0.49167 -0.41719,0.0596 -0.40227,0.77475 -0.34269,-1.40052 -0.62577,0.20859 -0.0298,0.87905 -0.34269,-0.13409 -0.16389,-0.81946 -1.62403,-0.16389 -0.13409,0.64067 0.29798,-0.0596 0.58108,0.64067 1.29624,0.25328 1.08766,0.1192 0.0298,0.93865 0.99826,-0.0745 -0.47678,0.59597 -0.61087,-0.1043 -0.40228,0.53637 0,-0.95354 -0.61088,-0.83436 -1.44524,-0.14899 -0.23839,-0.44698 -0.78966,-0.0596 -0.0894,-0.84926 -0.81946,-0.34268 -0.32779,0.70026 -0.74496,0.74496 0.96846,0.31288 0.61087,1.08765 -1.20685,-0.90885 -1.25155,-0.0894 -0.53637,0.49167 0.41718,0.43208 1.04295,0.0148 0.34269,0.25328 -0.47678,0.34269 -0.80457,-0.29799 -0.26819,0.38738 0.57637,0.73206 0.61559,0.65362 -0.68538,0.34268 0.0447,-0.53637 -0.78966,-0.894 -0.68538,0.0445 -0.22348,0.23839 0.35759,0.50657 -1.57931,-0.43208 -0.1639,-0.40233 -0.34268,0 -0.23839,-1.11744 -0.68537,0.1192 0.0149,0.89395 0.52147,0.14899 -0.0298,0.8791 -1.16216,-0.78965 0.37249,-0.34274 0.0447,-0.77475 -0.38739,-0.17879 -0.65954,0.60605 -0.45792,0.24371 -0.0745,2.16039 -0.80456,0.0297 -0.71517,1.29623 -0.98336,0.25329 0.53638,0.65556 1.41543,0.49173 0.56618,1.13234 -1.02806,-1.01315 -1.57933,-0.10429 -0.71516,0.67046 -0.22349,-0.58112 0,-0.35758 -0.59597,-0.0596 0,-0.59596 -0.53638,-0.1192 0.77477,-0.47677 0.65557,0.89395 0,-0.77476 0.77477,-0.35758 -0.59598,-0.59597 0.47678,-0.11919 0.71517,0.59597 0.29799,-0.89395 0.83436,-0.29799 0.35758,-1.96674 -0.23838,-0.53638 -0.47678,1.0132 -0.83437,0.0596 -0.71516,0.59597 0.29798,1.07274 -1.19195,0 -0.0596,-1.60912 -1.01316,-0.17884 0,-0.53637 -0.47678,0.0596 -0.0596,1.84755 0.47678,0.17879 0,0.59597 0.71517,0.53637 -0.95356,0.41718 -0.29798,-0.83436 -0.89396,-0.29798 0.0596,-2.32433 -0.77477,0.29799 -0.11919,0.9536 -0.59597,0.29798 -0.2384,1.19194 0,-1.66871 0.71518,-0.29799 0,-0.8344 0.41718,-0.0596 0,-1.01315 -0.35759,-0.11919 0,-1.48992 -0.41718,0.11919 -0.17879,0.53637 -1.01316,0 -0.23839,0.47678 -0.65557,0.0596 0.0596,0.53637 -2.93112,-0.17879 0,0.35758 0.53638,-0.0596 0.17879,0.53637 0.95356,0.29799 -0.53637,0.11919 -0.0596,1.0132 1.79877,0.47677 -1.70937,0.53985 -0.47678,0.53637 0.75581,0.65209 -0.53637,0.95355 0.47678,0.47677 0.83436,-0.17879 0.71517,0.35758 -0.65557,0.65562 0.77476,0.23838 -0.17879,0.29799 -1.57934,0.25328 -0.0149,1.19194 -0.41718,-1.62401 0.62578,-0.43208 -0.0149,-0.32778 -2.13061,0.0445 -0.0447,0.44698 -0.59597,0.10429 -0.13409,1.44523 -0.446984,0.23838 0.0894,1.75811 -0.37248,-0.28309 -0.0745,-0.62576 -0.432072,-0.52147 0.715167,-0.47678 0.178796,-0.71516 -1.013156,-0.29798 0.0596,-0.65557 0.83436,0.65557 0.119199,-0.65557 0,-0.59602 0.53638,0.0596 1.01315,-0.35758 0.59598,-0.0596 0.17879,-0.71516 -1.54954,-0.53637 -0.35758,0.89395 -1.013154,0.35758 -0.893962,-0.29798 -0.655575,0.71516 -0.715167,0.11919 0.29799,0.53642 0.893957,0.23839 -0.715167,0.53637 -0.357586,-0.35758 -0.774763,0.53637 0.536376,0.47678 -0.119194,0.77476 -0.715172,0.17879 0.178791,0.71516 -0.595973,0.11919 -0.953559,-0.83435 1.072757,0.11919 0,-0.83436 0.238388,-0.77475 -0.417183,-0.47678 -0.715167,0.77476 -0.357586,-0.71516 1.251548,-0.53637 0.119194,-0.65562 0.595973,0 0.0596,-0.77476 0.65557,-0.35758 0.417183,0.71516 0.297989,-0.53637 0.715166,0 0.655575,-0.77476 -0.953559,-0.77475 -0.834365,0.89395 -0.357586,-0.17879 0,-0.83436 0.715172,-0.53637 0.417183,-0.11919 0.297984,0.65556 0.953559,0.23839 0,0.59597 0.119193,0.59597 0.77477,-0.65557 0,-0.35758 0.71516,0.53637 0.53638,-0.29798 -0.29798,-0.29799 0.11919,-0.83435 0.95356,-0.17879 -0.65557,-0.47678 -0.83437,0.47678 -0.893957,0.53637 -0.17879,-0.77476 -1.489936,-0.23839 0.953559,-0.11919 0.417178,-0.41718 1.072756,0.59597 0.65557,-0.71516 -0.35759,-0.65562 0,-1.07274 -0.47678,0 -0.0596,0.53637 -1.430339,0.0596 -0.238387,0.53637 -1.430339,-0.17879 0,0.894 0.536376,0.53637 -0.476779,0 -0.417183,0.53637 -0.595973,-0.47677 0,-1.43037 -0.47678,0.0596 -0.119193,0.53642 -1.072753,0 -0.119199,0.29799 -1.013155,0.71516 -0.65557,0.71516 -0.774764,-0.17879 -0.715172,0.53637 -0.0596,1.01315 -1.072753,0 0,1.13234 1.013156,0 -0.357586,0.47677 -0.953559,-0.11919 -0.715167,0.23839 -0.17879,0.8344 -0.536382,0.29799 -0.357581,1.07274 -0.476779,0.59597 -1.13235,0.17879 -1.430338,1.7879 -1.430339,1.37078 0.119194,0.71516 0.715167,0 0.715171,-1.07274 0.65557,-0.0596 1.13235,0.77476 0.893962,0 0.417183,-1.37073 1.072752,-0.53642 -0.0596,-0.41718 -0.417183,-0.35758 0.238392,-1.60911 0.893962,-0.59597 0.47678,0.35758 0.65557,-0.0596 0,-1.13234 0.893962,-0.71521 0.47678,0 0.119193,-0.53637 -0.655575,-0.17879 0.178796,-0.29798 -0.47678,-0.53637 0.47678,-0.35759 0.893962,0.0596 0,-0.65556 1.132349,-0.53637 0.47678,-0.71517 1.31114,-0.35758 -0.238387,0.35758 -0.774769,0.17879 -0.953554,0.95355 -0.655575,0.1192 -0.297984,1.25153 -0.655575,0.29798 0.834365,0.83436 -0.119203,0.40233 -1.266443,0.20859 -0.04797,1.30391 0.342466,0.67538 0.588585,0.32635 -0.153446,1.0455 -0.546831,0.13686 -0.12946,0.30832 1.186832,0.26681 0.130626,0.28917 -0.951654,0.0867 -0.475965,0.52526 -0.531139,-1.3075 0.15745,-1.27785 -0.724326,-0.37258 -1.273749,-0.12907 -0.0596,1.34092 0.357585,0.149 0,0.8344 -0.372485,0.19369 -0.581074,1.57932 -0.700272,0.0894 -0.163891,0.41718 -1.251549,-0.0745 -0.17879,-0.46187 -1.191946,-0.14899 -0.0298,1.02804 -0.581074,0.23839 -0.297989,-0.37248 -0.551275,0.37248 0.163891,0.52147 0.566175,0.14899 -0.223488,0.83436 0.759864,0.73011 0.0149,0.64067 0.655575,0.0148 0.357581,-0.56617 0.0149,0.67047 -0.908856,0.40228 -0.730071,-0.43208 -0.0447,-1.07279 -0.908861,-0.99825 -0.08939,-1.47502 -0.789668,0.50657 -0.148992,1.37073 -0.551276,0.19369 0.0447,0.8344 0.46188,0 -0.312888,0.53638 -0.625772,0.0445 -0.446981,0.90885 0.387385,0.65557 -0.774764,-0.0446 -0.774769,0.50657 0.0149,1.38563 -0.998257,1.19199 0.0298,1.35582 0.461881,0.40228 -0.759865,0.31289 -0.670474,0.65556 -0.0149,0.77476 -0.566175,0.11919 0,1.31118 -0.670469,0.29799 0.327783,0.93865 -0.327783,0.55127 0.610872,0.47677 0.163892,-0.56617 0.312888,0 0.640671,-0.50657 0,0.80456 0.476779,0.26818 -0.208589,0.62577 -0.759869,-0.17879 0,0.34268 0.417183,0.29798 0.0447,1.72836 0.715172,0.29799 -0.0447,1.37072 -0.67047,0.17879 0.0149,0.35758 0.506578,0.26819 -0.0149,1.8773 -0.521477,0.0297 0.163891,1.50487 0.685374,0.0297 0.342681,-0.58107 0.75987,-0.20859 0.0149,-1.14729 0.268191,0.31289 0.774763,-0.0297 1.191947,1.17709 0.0745,1.34093 -0.655575,0.20859 0.0596,0.70026 0.432082,0.37248 -0.986777,0.46873 -0.357735,1.18723 0.405853,1.96459 1.728327,0.0745 0.0447,0.83436 1.221744,0.49167 -0.446981,1.14724 -0.595973,0.37253 0.104295,0.64066 0.372485,0.35759 -0.08939,0.74496 -0.864164,0.17879 -0.536377,0.77475 -0.0298,1.29623 -0.685368,0.49168 -1.013156,0 -0.312888,0.65561 0,-1.05789 0.804567,-0.44698 -0.730071,0.0148 -0.0894,-0.38738 -0.491678,-0.29798 -0.0447,-0.77476 0.357586,-0.26819 -2.354099,0.20859 -0.0447,0.38738 -0.476779,0.44698 -0.387385,-0.98335 -0.521477,-0.0745 -0.0894,0.58106 -0.566175,0.49168 -0.163891,-0.41718 -1.370742,0 -0.208594,-0.61087 -0.65557,0.34268 -0.193689,0.83436 -0.0149,-0.77476 -0.417183,-0.34268 0.17879,-1.26643 0.670475,-0.41718 -0.327788,-0.41718 -0.953559,0.64067 -0.134093,0.83435 -1.668731,0.0745 -0.581074,-0.53637 -1.683625,-0.0445 0.446982,-0.71516 1.236643,-0.19369 0.134098,-0.32783 -0.93866,0.0297 -1.549532,0.8642 -1.028055,0.86415 -1.326044,0.0745 -0.119193,0.93865 -0.715172,0.67046 -0.789663,0.16389 -0.670474,0.81946 -1.206846,0.40228 -0.26819,0.9685 -0.38738,0.16389 -1.445237,1.59421 -0.223494,1.31113 -1.504834,1.23664 -0.0149,0.52152 -0.93866,0.99825 0,0.62576 -0.491679,0.37248 1.311145,0.1192 0.0298,0.31288 -0.700268,0.0894 -0.208594,0.59597 -1.042954,0.0149 0.0149,0.67046 0.581074,0.28309 0.372485,0.55127 0.923761,0.0297 0.65557,0.75986 1.102551,0.61086 1.460137,0.99825 0.893962,0.19369 0.819466,0.95355 0.685368,0 0.446982,-0.58107 0.566174,-0.0148 0.551276,0.50657 0.253291,1.04295 0.864164,0.55132 0,0.83435 -0.595978,0.26819 0.0745,0.87905 0.923761,0.16389 0.640675,0.80456 0.715167,0.17879 0.536376,-0.40228 0.28309,0.41718 1.028055,-0.13409 -0.92376,0.68536 0.0149,0.37248 0.700267,0.32778 0.253292,0.56617 1.385641,1.23669 0.595973,0.0596 0.625772,0.65557 -0.180363,1.10392 1.198823,1.25712 1.530102,0.35307 0,0.64737 0.76505,0.5885 1.235851,0.0588 0.588498,0.88273 -0.176548,1.41241 0.941598,1.35357 1.530102,0.7062 0.529649,-0.58849 2.530555,0.0588 1.412398,1.64782 1.059302,0.41196 -0.05885,0.94156 0.941599,0.0589 0,0.64733 1.412403,0.0589 0.765046,0.41195 1.177001,-0.52966 0.529653,0.47078 -0.647352,0.82391 0.470799,1.11816 0.706202,-0.88274 1.118152,0.41195 1.883202,-1.64782 1.471248,0.11771 0.647352,-0.41195 1.177001,0.0588 0.05885,0.76508 0.941599,0.35307 -0.706197,0.52967 0.529649,0.58849 0,0.94162 0.706202,1.29469 0.882749,0.35308 0.117699,0.76508 -0.941599,0.23537 -0.235402,1.05932 -0.529649,0.29425 1.70665,0.88274 0.117698,0.76508 2.000904,0.70615 0.64735,0.7062 0.9416,0.47084 -0.17655,2.05972 -0.41195,0 0.88275,1.05933 0.88275,0 0.3531,0.47078 1.177,0.11771 0.3531,-0.82391 1.11815,0.11771 1.2947,1.23587 -0.0588,0.64732 1.177,1.00045 2.17745,0.0589 1.11815,0.94157 -0.1177,0.35312 1.70665,0.52967 0.5885,1.29469 1.70666,0.35308 1.70813,0.28001 1.77525,0.18852 1.17879,0.21862 0.2494,-0.0343 1.54678,-0.52777 0.22611,-0.13312 0.52376,-0.7317 1.15432,-0.20885 0.87692,-0.31457 0.33458,0.0941 1.26961,-0.0333 1.09691,-0.53626 0.27693,0.0123 1.61226,0.1962 0.64735,1.2947 1.35355,0.29429 -0.70619,2.35398 -0.70621,0.23541 -0.41195,1.64777 0.52965,0.11771 0.64736,1.88319 1.177,0 2.9425,1.58899 1.23585,1.76548 2.2363,-0.11771 0.4708,-0.47078 2.05975,0.23541 0.41195,2.0009 -0.64735,1.82436 -0.7062,0.23536 -0.8239,2.11861 c 0,0 0.17655,1.82436 0.17655,2.29514 0,0.47084 -0.52965,0.41196 -0.52965,0.41196 l 0.41195,3.76642 -0.3531,0.41196 0.1177,0.94157 0.52965,-0.47079 2.5894,-1.05928 0.5885,-0.64737 1.177,-0.17654 0.5885,0.11771 -0.29425,0.64732 1.4124,1.64783 0.7663,0.22558 0.20875,0.0108 1.22938,0.3349 1.52067,0.41216 1.27973,0.50212 1.57102,0.37381 1.04232,0.35861 1.47643,-0.30602 1.57313,-0.37853 0.23836,-0.0853 0.34657,-0.33439 0.17317,-0.16727 1.84537,-0.0661 1.34937,0.0966 0.36894,0.21126 0.63268,0.79636 0.85057,1.62678 0.53269,0.55301 0.12282,0.33684 -0.25481,0.74752 0.26469,0.44488 1.2755,0.26409 0.29223,-0.0266 1.00208,0.65705 0.92304,-0.34847 0.32023,-0.0748 1.30938,0.73354 1.63454,0.0533 1.26656,0.33561 0.70939,0.37356 1.08939,0.30955 0.89973,0.0138 0.92022,0.0405 0.27646,0.11765 0.93385,0.13886 0.49552,0.0519 0.55505,-0.66488 0.24211,-0.0694 0.12682,0.0353 0.5661,-0.41928 0.68069,-0.15017 0.46093,0.1533 0.43763,0.19988 0.0687,0.28068 1.71854,-0.14735 0.11577,-0.23353 -0.08,-0.21058 -0.34517,-0.33987 0.12729,-0.24514 1.62748,-0.61517 0.29976,0.0358 1.55643,0.23808 1.09479,0.2603 0.27647,0.0476 0.60939,0.81976 0.13812,0.1172 0.14964,0.0241 0.55458,-0.41923 0.93338,0.34156 0.28658,0.62034 0.10753,0.10562 0.73339,0.38774 0.67504,0.37591 2.16842,-1.23453 0.52398,-0.1277 0.26188,-0.0637 0.30399,0.0307 0.60799,0.0611 1.25385,0.5033 0.18987,0.005 1.19103,-0.22052 1.60937,-0.0869 0.49481,-0.50001 0.25317,0.11601 0.46823,0.75894 1.29243,-0.0876 0.31717,-0.32051 -0.027,-2.12419 -0.2487,-3.71348 0.0567,-1.46023 0.067,-1.0175 0.83498,0.22447 0.44698,-0.56617 1.10259,-0.17879 0.38738,0.68536 1.10254,0.0596 0.0894,-1.81776 1.10254,-1.07274 1.63891,0.38738 -0.17879,0.77476 1.43037,1.25158 0.77476,-0.59597 -0.11919,-0.59602 1.10254,-0.11919 0.0298,1.69856 0.77476,0.38738 0.32778,-0.89395 0.74496,0.56617 -0.0298,0.56617 1.22178,0.0596 0,-0.71516 0.80456,-0.74496 0.32778,0.74496 0.98335,0 1.28133,1.75811 -0.62576,0.35758 0.0596,1.07274 0.98335,-0.0297 0.23839,-0.80455 1.90714,-0.44698 0.0894,0.80456 0.89395,1.16219 1.40052,-0.1192 1.48997,1.78791 -0.0894,0.59597 -0.65562,0.41717 0,0.41718 1.25159,0.47678 0.53637,1.01314 1.51972,1.46017 0.26818,1.57932 1.9667,2.05609 2.11578,0.62582 0.47677,0.68536 1.10254,-0.0596 2.14554,2.97984 3.09903,0.68537 0.59597,0.77481 1.34098,0.0297 0.53637,-0.65561 3.87384,0.26823 -0.0297,-0.8642 0.92375,-0.62577 0.56617,0.26819 -0.0297,0.89395 2.65206,2.7415 1.34098,-0.20859 1.13234,0.65557 0.71516,1.25153 2.6819,0.71516 1.31113,1.1026 0.56617,0.86415 1.51972,1.04294 0.50657,-0.0297 0.29799,-0.71516 1.75816,-0.0894 0.80455,1.13234 0.92375,0.0596 0.77476,-0.20859 0.59597,0.0894 0.29798,0.62577 2.02635,-0.0297 0.20858,-0.89395 0.95355,-0.62577 0.53637,-1.93689 1.28134,-0.9536 1.69856,0.17879 0.50657,0.9536 1.60911,0.71516 1.90715,0.0297 0.32778,0.41717 1.16214,0.1192 0.44698,0.74496 0,1.10254 1.25153,0.11919 1.43032,1.54957 1.72836,0.11919 0.53637,1.66871 0.86416,-0.0297 0.47677,0.32778 0.14899,1.13234 0.59597,0.68536 0.38738,0 0.11919,-0.65556 1.19199,-0.0894 0.62577,1.51972 0.41717,0.0297 0.47678,0.71521 1.28133,-0.0894 0.0894,-1.22178 1.34097,-0.86415 0.26819,-1.10255 0.89395,-0.47677 0.56617,1.25153 1.22174,0.44698 0.86415,1.31113 0.17879,1.31118 0.71516,0.62577 -0.0894,1.7283 1.43037,0.89396 0,0.7748 -0.77476,0.53638 0.1192,0.77475 0.80455,0.35759 0.1192,0.50657 0.62576,0.11919 0.41718,-1.10254 1.28133,-0.62577 0.26819,0.98335 -0.77476,0.56617 -0.0894,0.47678 0.95355,0.47677 0.23839,0.50657 0.83441,-0.0596 0.14899,-0.92375 0.98335,-0.41718 1.16213,0.0297 0,0.68537 -0.65556,0.47677 0.0894,0.47678 1.34093,-0.0297 1.63891,1.0132 0.17879,1.25153 1.22179,1.04294 0.14899,1.51972 0.59597,0.32778 0.44698,-0.86415 0.65556,-0.23839 0.17879,1.81771 0.59597,0.23843 0,-0.71521 0.83435,-0.23839 0.41723,1.22179 2.23488,-0.23839 0.20859,1.43033 -0.71516,0.44697 0.0297,1.07274 0.59596,0.47678 0.0596,0.44697 0.38738,0.0297 0.59597,-1.19194 0.50657,0 0.37217,0.7103 0.0742,1.16598 -0.65556,0.11919 0.11919,0.9536 1.75816,0.86416 0.0297,1.22173 -0.8046,0.17879 0.0596,1.25153 0.9834,1.46018 1.19194,0.14899 -0.1192,1.10254 -0.77476,0.47677 -1.13233,-0.11919 -0.50663,1.13234 1.60917,1.60917 2.02629,0 0,0.89395 -0.59597,0.47677 0.35758,0.65557 0.83436,0 0.65556,-1.01315 0.894,0.71516 -0.71521,0.23839 -0.0596,0.53637 -0.47677,0.53637 0.53637,1.37073 0.894,-0.29799 0.65557,-0.89395 0.83435,0.47678 -0.23838,1.13234 -1.07275,0.35763 0,1.07274 0.59597,0.53637 -0.83435,0.47678 -1.0728,-0.95355 -1.07274,0.0596 -0.77476,0.89396 0.53637,0.71516 1.37073,0 1.31118,1.25153 -0.11919,2.14554 -0.65562,0.41717 0.41723,1.13234 1.13234,0.0596 1.37073,1.96675 1.48992,-0.0596 0.65556,-0.71521 1.37078,0 0.53637,1.07279 1.43032,0.23839 1.78796,1.8475 1.8475,-0.1192 0.95355,-1.25153 -0.59597,-1.13239 1.31113,-1.13234 0.41718,0 -0.17879,1.07274 0.53637,0.77481 -1.07274,1.60912 0.83435,1.54951 0.77476,0.59597 0.47682,1.0132 0.41718,0 0.83436,-1.07279 -0.59597,-0.59597 1.13234,-0.77476 1.13234,0.71516 0,0.71516 -0.95355,0.41718 -0.0596,1.0132 0.77476,0.47677 1.13234,-0.71516 0,-0.41718 0.83435,-0.11919 1.25159,0.83435 0,1.78791 0.83435,0.47677 0.54989,1.85027 -0.13271,1.30841 2.26468,0 0.71521,1.25154 0.89395,-0.0596 0.41718,-0.53637 0.29799,0 0.65556,1.25153 0.89395,-0.17879 0.95355,-2.50307 -0.35758,-1.25158 1.07279,1.31118 0.23839,2.20508 1.31113,0 0.95355,-0.83435 0,-0.59597 0.59597,0 0.83435,2.32428 1.31118,0 0.65557,-0.89396 0.59597,0.17879 -0.47678,2.38393 0.95355,0.47677 0.23839,1.54952 0.53637,0 0.77476,-1.31113 0.41718,0 -0.0596,2.74145 -0.65557,0.47678 0.65557,0.59596 0.47677,-0.23838 1.0728,1.07279 -0.41718,0.89395 -0.77481,0.1192 -0.59597,-0.29799 -0.71516,0.65557 0.53637,0.65556 2.38392,-0.11919 0.65557,1.96669 -0.65557,0.59602 1.19194,0.77476 0.77476,-0.65557 0.71516,0 0.41718,1.01315 -0.95355,0.83436 0.23839,0.35758 0.95355,0.17879 -0.0596,1.60911 -1.01315,0 -0.0596,1.0132 0.53637,0.29798 0,0.53642 0.53637,0 0.65556,-0.77475 0.41723,0.0596 0,1.25153 -1.13239,0.53638 -1.48992,1.96669 -0.65556,0.0596 0.0596,0.53637 0.65557,0.35763 0,0.77476 -1.07274,1.43032 -0.47678,0.17879 -0.0596,0.71516 1.96669,1.78791 2.7415,0 1.25154,1.43037 -0.17879,1.13234 0.89395,0.71516 1.01314,-0.59596 0.0596,-0.65557 0.77476,0 0.77481,1.07274 0.95355,-0.47677 0.95355,1.25153 0.89395,0.53637 0.17879,0.9536 1.01314,-0.35763 0,-1.13234 -0.65556,-0.11919 0.11919,-1.13234 0.71516,-0.53637 1.19199,-0.0596 1.25153,0.59597 -0.29798,1.25153 0.89395,0.0596 0.83436,-0.71516 0,-1.37073 -0.59597,-0.41718 0.89395,-0.95355 1.60917,1.9667 0.0596,1.43032 0.83436,0 0.83435,-0.71516 1.07275,0.59597 -0.0596,1.54957 -0.47678,0.29798 0,1.37073 0.89396,0.65556 0.65556,-0.41718 1.0728,1.37073 -0.1788,0.77476 -0.71521,0.29798 0,0.53642 0.83441,0.41718 0,1.9667 -0.59602,1.01314 -0.71516,-0.17879 -0.17879,0.83436 0.95355,1.60916 0.9536,0 0.71516,0.89395 -0.71516,0.89396 -0.47678,0 -0.11919,0.83435 1.01314,0.89395 1.54952,-0.17879 -0.17879,1.78796 -0.89395,-0.1192 -1.60917,1.37073 -0.29798,2.62226 -1.31113,0 -1.60911,0.83441 0.0596,0.77475 0.35758,0.17879 0.0596,2.14549 1.13234,0.35758 2.20513,2.14554 -0.65561,1.01314 -0.65557,0 0,0.53637 0.894,0.71516 2.14549,-0.65556 0.23839,-1.07274 0.65556,1.60911 -0.53637,0.89395 0.77476,1.0132 0.83435,-0.71521 0,-2.44347 0.83441,0 0.89395,2.68185 0.65557,0 0.89395,-1.01314 1.54952,-0.41718 0.0596,1.01315 -0.83435,0.65556 0.47677,1.43038 1.90715,1.13234 0.0596,0.89395 -0.77481,0.59597 -0.0596,1.07279 0.47683,0.47677 1.7879,-1.78795 2.62226,-0.0596 3.93344,-2.38387 -0.35758,-0.71516 0.41718,-0.47678 1.31118,1.37073 0,1.54952 1.25153,-0.29799 0.11919,-1.48992 -0.53637,-0.53637 1.37073,-0.59597 1.37073,1.19194 0,1.7879 -0.71517,0.35758 0.71517,0.65557 1.31113,-0.17879 0.35763,-1.78791 1.48992,-1.07274 0,-1.84755 0.77476,-0.11919 0.47677,-0.59597 2.08594,2.8607 3.7546,-0.23839 0.29798,1.43032 0.47678,0.1192 1.01319,-1.72831 1.37073,0 0.89395,1.07274 0.53637,0 0.95355,-1.43032 0.77481,0 0.47678,1.19193 0.47677,0.0596 0.77476,2.02629 -0.23839,0.89395 0.83436,0 0.65556,-0.59596 3.03949,-0.41718 -0.0596,-1.25153 0.47678,0 1.01314,1.01314 -0.23839,0.95355 1.07275,-0.0596 0.29798,-0.71516 -0.83435,-1.25153 0.65556,-1.19194 1.60917,0.23839 -0.59602,0.65556 0.41717,0.41718 2.14554,-0.53637 0.23839,-1.19194 0.65556,0.41718 0,2.32428 0.83436,0.17879 1.13234,-1.07274 -0.0596,-1.13234 -0.77476,-0.47678 0.17879,-0.83435 2.97989,-1.96675 1.78791,-2.38387 1.01319,-0.17879 1.48992,1.96669 1.60912,0.17879 1.43032,-1.13234 0.77481,0.41718 0.41718,1.37073 1.07274,-0.23839 -0.11919,-1.13234 -1.19194,-1.19193 0.35758,-1.43038 0.53637,0 0.65557,-0.59597 0.59597,0.59597 1.25153,-0.23839 0.53637,-2.38387 1.19199,-2.08594 0.59596,-2.32427 0.59597,0 0.53637,1.13234 0.53637,-0.0596 0.29799,-1.07274 1.48992,-0.71516 0.65561,-1.37073 1.37073,-0.71521 1.01315,0.9536 -0.59597,1.8475 -0.65557,0.35758 0.47678,1.7879 0.77476,0.0596 2.56271,-1.66871 1.19194,-0.11919 0.59596,0.95354 1.66871,0.47678 2.08594,1.07279 2.56267,-0.11919 1.01314,1.07274 -0.29798,2.38387 -0.77476,0.59597 -0.0596,0.47678 0.95355,0.59601 0.53637,1.37073 1.0728,-0.23839 0.11919,-0.83435 -0.59597,-0.59597 -0.23839,-2.62231 0.71517,-0.71516 1.01314,0 1.78791,3.09903 2.02634,0.77481 0,1.9071 -0.53637,0.23839 0,1.43032 0.71516,0.35758 1.48992,-1.01314 -0.11919,-0.71517 0.17879,-0.29798 0.65556,0.89395 1.7879,-0.47677 0.65562,-1.43033 0.95355,-1.07274 0.59597,0.35758 -0.0596,1.60912 -0.65556,0.71516 0.17879,0.59597 0.95354,-0.1192 1.60912,-2.68185 0.89395,0 0.17884,0.71516 1.25153,1.13234 1.43033,-0.35758 0.17879,0.23838 -0.77476,0.83436 0.11919,1.07274 0.65557,0.29798 0.89395,-0.53637 0.95355,-0.0596 1.60916,-1.48992 -0.0596,-1.43033 -1.13234,-0.77475 -0.0596,-0.89401 -0.77481,-0.53637 0.17879,-0.71516 1.13239,-0.53637 0.83436,-0.95355 3.15863,-0.35758 2.38392,2.38387 0.95355,-1.07274 -0.35758,-1.37073 -1.60911,-1.54952 0.59596,-1.13239 1.9667,-0.17879 0.95355,2.02635 1.31118,0.17879 1.7283,-1.60917 1.9667,-0.11919 1.37078,1.43037 -0.23839,1.43033 1.37073,1.48992 1.13234,0.11919 0.71516,-0.83436 0.65556,0 1.78796,2.80111 1.8475,0 0.65556,0.65556 1.19194,-0.23839 1.0132,0.95355 -0.35759,1.07274 -1.07279,0.29799 0.11919,1.01314 0.77481,0.47678 1.66871,-0.1192 0.23839,-1.01314 0.41718,0 0.11919,2.26473 -0.83435,0.35758 0.0596,1.31113 1.78791,1.43032 0.89395,0 0.59602,-0.41718 1.37073,-0.35758 0.23838,-0.83435 -0.71516,-0.95355 -1.78795,-0.77476 -0.17879,-0.35758 1.66876,-0.23839 1.54951,0.59597 1.19194,2.56266 1.31113,0.29799 0.65562,-1.37073 0.83435,-0.0596 0.77476,1.31113 -0.29798,2.02635 0.77475,0.71516 1.28134,0.0596 1.34097,-0.86415 0.44698,-0.9834 1.10254,-0.32778 0.89395,0.83436 0.71516,0.14904 1.01315,-0.62582 1.48997,1.19199 -0.65556,0.98335 -1.63897,-0.0297 -1.63891,0.95355 0.47678,1.28133 2.11568,0.26819 2.62231,-2.14549 1.9667,1.63891 -0.0596,3.18848 0.62577,0.65557 -0.38738,0.50657 0.894,0.62577 1.07274,-0.47678 -0.0596,-0.47677 0.89395,-0.80456 1.22173,1.04294 -0.50657,0.44698 -0.0596,1.07274 -0.53637,0.71522 0.92375,0.77475 0.0894,0.71517 1.43032,-0.35758 0.80461,-1.72836 0.92375,-0.80456 0.20859,-1.16214 1.60911,1.46012 -0.53637,0.89396 0.62577,0.23843 -0.20859,0.95355 -0.62577,0.20859 -0.0297,1.04295 0.82053,0.5785 -35.17717,57.16736 1.26423,-0.40038 0.92713,0.40038 1.32746,2.17027 0.73749,0.12646 0.12641,0.80067 0.99031,-0.042 0.27392,-0.77963 0.16866,0.42128 0.10531,1.3485 0.65321,0.042 0.75858,0.67425 1.09568,0.0632 0.29497,-1.05354 0.29501,-0.10517 0.88499,0.021 0.1896,0.33715 3.96134,0.21069 0.44252,0.6743 0.99036,0.67425 2.00172,0 0.25287,0.84286 0.92708,-0.0632 0,-2.21245 0.54784,0 1.41179,-1.53815 2.33887,0.29496 0.8639,-0.77962 0.67425,0.10552 -0.021,0.71639 0.94822,0.23179 0.92713,1.26428 1.32746,0.73748 0.31606,0.88494 0.71639,0.46357 0.3582,-0.18965 0.44252,0.31606 1.0114,1.47497 0.31606,1.18001 1.89635,2.40205 0.96926,0.25287 1.83317,2.00172 0.23178,0.92713 0.90604,0.52674 0.12646,1.13782 1.62243,1.72785 -0.0843,0.42158 -0.29501,0.80066 0.73748,0.54784 0.1686,1.11678 0.61102,0.5057 0.77963,-0.65321 0.48465,0.52675 1.43284,1.62247 27.3921,-148.4653 -0.3582,-0.27392 -0.61107,-1.66462 1.24319,-0.90603 0.29501,-4.42491 0.65316,-0.80067 0.80072,-0.0843 0.31606,-1.34856 -0.61108,-0.44247 -0.0632,-3.56101 -0.94822,-0.75853 0.0632,-1.0325 -0.5268,-0.37924 -0.12641,-0.99036 0.92713,-0.23178 0.14751,-2.69706 0.99031,-1.20105 0.42143,-0.10532 0.21068,-0.56894 -1.32746,-1.64352 -0.69529,-0.29501 -0.13681,-0.71675 0.55849,-0.96973 -0.6953,-0.56888 0,-0.86395 -0.82181,-0.16855 -0.18959,-0.5057 0.99031,-0.48461 0.23178,-0.56893 -0.96927,-0.75853 -1.07458,0.29496 -1.11678,-2.2124 -1.26428,-0.10537 -1.47492,-2.04391 -0.12646,-0.65315 0.69535,-0.25288 0.1475,-0.77962 -0.73748,-0.3582 0,-0.67425 -1.66461,-1.15891 0.042,-1.28533 -1.55925,-1.26423 -1.26423,-2.33887 -1.05354,-0.1475 -0.29501,-0.54784 1.62247,-1.28533 0,-1.5382 1.3907,-1.17995 0.021,-0.77963 0.65321,-0.42142 -0.10537,-1.68566 -1.89635,-1.3696 -0.12646,-0.58998 0.69535,-0.40033 -0.042,-1.51711 -1.11672,-0.77962 -0.0843,-0.61107 0.61108,-0.3582 -0.44247,-0.54784 -0.67431,-0.21074 -0.58998,-1.11672 -1.93848,-0.48466 -2.65492,-1.34851 -3.20282,-2.84457 -2.71811,-1.07463 -1.09568,-1.62243 -3.43454,-0.48466 -1.60144,-2.00171 -1.3696,-0.54784 -2.29673,-2.50742 -0.56888,-1.51711 -0.69535,-0.59003 0,-1.07458 0.56894,-0.63212 0.042,-0.75858 -0.99036,-1.28532 0,-37.00045 0.56894,-0.61102 1.11677,0.042 0.67425,-0.67425 -0.65321,-0.48466 1.3907,-0.69534 0.86389,1.3696 1.09568,-0.0632 0.99032,-1.43283 2.5496,0.37929 1.49601,-0.63211 0.73749,0 0.48461,0.73748 1.60143,-0.1686 0.82176,-0.94817 2.52846,-0.84286 0.63217,-1.26423 1.55924,-1.05354 0.1896,-0.73748 2.29673,0.63211 -0.021,0.63212 1.24319,0.48466 -0.0632,0.65315 0.73748,0.12647 1.20105,-1.3907 -0.69534,-0.4846 0.69534,-0.10537 1.03245,-1.07464 0.69535,0.18964 1.0325,-0.58997 1.15886,-2.02281 1.55924,-0.63212 0.37929,-0.61107 2.06495,1.07464 -0.021,0.92713 1.55924,1.72779 2.88671,2.00172 -0.25283,1.28532 0.63212,0.021 0.61107,-0.63211 0.10537,-1.05354 0.54784,-0.14751 0.27392,0.75853 0.73749,0 0.92707,-1.26423 0.65321,0.40033 0,1.32746 -0.42142,0.3582 0.042,0.56893 2.42314,0.16855 0.21074,0.46357 0.82176,-0.042 1.66462,-1.60138 -0.21074,-0.84286 0.6743,-0.88494 1.41174,0 0.31606,0.67426 1.09568,-0.042 0.65321,0.71639 0.69534,-1.07458 -1.32751,-0.96927 -0.48461,-1.93853 -1.41174,-0.40034 -0.23178,-0.67425 -0.75858,0.14746 0,-1.55925 0.80072,-0.8428 0.54784,0.37929 0.8639,-0.1686 0.021,-2.17027 -0.56893,-0.1686 -0.10537,-0.73749 -0.54784,-0.042 0.042,-1.49601 0.59003,-0.54784 1.05354,-0.021 -0.021,-1.62243 -1.30637,0.14746 -0.65321,-0.52675 -0.12641,-0.82176 -0.92713,-0.67425 0,-0.63217 1.55924,-0.52674 -0.042,-0.50571 -0.69535,-0.56893 -0.96926,-0.042 -0.23179,-0.56888 -0.86389,0.0632 0.0632,-1.0114 0.56888,-0.23178 0.021,-1.13782 -0.58998,-0.71639 -1.24318,-0.56894 0.021,-0.63211 -0.42143,-0.48461 -1.91744,-0.0632 -0.18964,-0.5057 -0.80067,0.042 -0.75858,-0.5057 -0.54784,-1.13782 -0.35819,0.10537 -0.27392,0.42137 -2.40205,-0.0843 -0.99036,1.47497 -0.71639,0.12641 -0.12642,0.75858 -0.92712,-0.56893 -0.18965,-1.28533 -0.96927,0.18965 -0.5057,-0.67426 -2.46528,0.10537 -0.67425,0.54784 -2.06495,0.14746 -1.0114,-0.73749 -0.99037,0 -0.73748,-1.07458 -1.26423,-0.042 -0.33715,0.69534 -1.05355,-0.12646 -1.07458,0.54784 -0.0632,0.65321 -0.52675,-0.0843 -0.35824,-0.69534 -0.92708,0 0.0843,-0.61103 0.56889,-0.40038 -0.25283,-1.0114 -2.31782,0.021 -0.40034,0.58998 -1.20105,-0.021 -1.66456,1.49607 0.23178,0.58998 -0.54784,0.29501 -0.53432,-0.40023 -0.0225,-34.92818 2.99479,-0.0975 1.10254,-1.01314 0.95355,0 0.56617,-0.50657 1.40053,-0.20859 0.71521,0.68536 3.30762,0 1.48997,-1.63896 1.78791,-0.47678 0.62576,-0.80455 1.34093,-0.0297 0.50657,0.38738 2.23493,0.65556 0.29799,0.41718 1.48992,0 0.56617,0.38743 2.08594,0.17879 0.95355,1.10254 1.31113,-0.0297 0.83435,0.83435 65.46775,0 0.0596,-1.51972 -1.07274,-0.32778 -0.0297,-0.74501 -0.29798,-0.26819 -0.149,-0.80455 -1.54951,-0.0596 -0.53637,0.62577 -0.9834,0 0,-1.28133 0.56622,-0.29799 0.0297,-1.46012 -2.44352,-0.14899 -0.0596,-0.68536 1.13234,-0.74502 0.53637,-0.98334 0.0297,-1.63892 1.48997,-1.90714 0.62577,-1.63892 1.60911,-0.0297 2.26473,2.08594 1.43033,0.38738 2.50306,2.80105 0.17879,1.16213 3.63546,3.72485 5.03598,2.62232 2.11574,-0.0596 0.32778,-2.08594 0.35758,-0.26819 0.11919,-0.74496 -0.71516,-0.71516 0.0297,-1.10254 -1.10259,-0.80456 -0.0297,-0.68541 1.46017,-0.50657 0.59597,-1.10254 2.83085,-1.34093 1.77403,-1.80275 0.72084,-0.65526 1.96583,-0.39317 1.04847,-1.76926 2.29345,0 1.37606,0.39316 2.2935,-0.32763 2.16243,-1.90029 0.85182,-1.96582 -0.0655,-1.17949 2.0969,-2.29351 2.09684,-0.13107 1.04848,-1.44159 -0.19661,-1.50712 1.90034,-0.78633 2.09689,1.04842 -0.0655,2.22797 0.52418,1.24498 0.78638,0.4587 -0.52423,0.9174 -0.65531,0.19661 0.13107,1.17949 2.22797,1.44159 0.0655,0.39317 -0.78638,0.78633 0.13107,1.44163 -1.11395,0.65526 0.39316,0.13107 0.0655,1.31057 0.9174,0.4587 0.26209,0.85187 -0.26209,1.24503 1.57266,1.83475 0.19655,1.04847 3.40747,2.55555 1.57266,0.19661 0.1966,-0.52424 0.91735,0.32763 0.39317,0.32763 0.72084,0 0.91735,1.8348 0.19661,3.21086 -0.85186,1.31056 0.51225,1.70389 2.04365,1.55315 0.16348,0.73574 -0.40873,0.81746 0.40873,0.40873 -0.0817,2.37061 -0.81746,0.73575 0.81746,0.49044 0.32696,1.22619 3.23113,2.24584 0.32701,0.89922 -0.73574,0.89923 0.0818,1.47138 0.57221,0.4905 0.0818,0.89923 -0.73574,0.24519 -0.65393,0.65398 -0.98099,0.16348 -0.73569,1.88017 0.4905,2.20713 0.98094,0.89922 0.73569,2.86111 0.98094,0.81746 0,0.65398 -0.32696,0.98094 0.72791,0.91033 -0.29609,1.04059 10.39974,-2.83085 0.0596,-1.22173 -0.62577,-0.59602 -0.0297,-3.48641 0.77475,-1.25159 0,-0.47677 0.50658,-0.44698 0,-0.59596 -0.44698,-0.29799 -0.26818,-1.72831 -2.32433,-1.93694 -0.56617,-1.13234 0.0596,-1.10254 0.59596,-0.56617 -0.17879,-1.72836 -1.22173,-0.71516 -0.74496,-2.65206 -0.80456,-0.56617 -0.11919,-0.83435 -0.74496,-0.20864 -0.26819,-0.56617 0.89396,-0.77476 -0.1788,-0.71516 -0.9536,-0.74496 -0.29798,-1.9667 -0.68536,-0.47682 -0.89395,-3.7546 -1.16214,-1.37078 -0.1192,-1.60911 -0.59596,-0.56617 0,-0.56617 0.47677,-0.32779 0.14899,-0.62576 -1.57931,-1.90715 -0.35763,-2.23488 -1.9071,-2.8607 -1.34093,-0.56617 -0.14899,-0.56617 0.89395,-0.65556 0.38738,-2.41372 0.53637,-0.38738 0.0297,-1.66871 -0.83436,-0.32779 0,-2.26473 -0.83435,-0.71516 -0.56617,0.0297 -0.53637,0.68536 -0.86421,0 -0.86415,-2.26468 -1.01315,-0.38738 -0.35758,-2.83089 -0.65556,-1.04295 -0.56617,-0.0596 -0.1192,-1.16213 0.62577,-0.41718 0.11919,-0.98335 -0.80455,-0.71516 0.0894,-0.38743 0.74496,0.0297 1.25153,-1.34093 -0.0596,-1.54952 -1.9071,-1.34093 -1.99654,-2.59251 -1.75811,-0.17879 -1.96669,-3.06929 -0.50663,-1.87729 -2.71165,-1.8773 -0.89396,-1.54957 -1.22173,-0.47678 -3.33747,-4.11223 -0.86416,-0.14899 -0.29798,-0.38738 -1.16219,0 -0.83435,0.89401 -0.71516,0 -0.35759,-1.51977 0.74496,-0.68537 0.1192,-1.28133 -1.19194,-1.13234 -0.77476,-1.96674 0.1192,-0.89396 -1.07275,-1.31113 -1.04299,-0.0894 -0.92375,0.98335 -2.35407,0 -2.59252,-0.95355 -0.53637,-1.25153 -0.92375,0.0297 -0.53637,0.65557 -2.7713,-0.0894 -1.16214,0.89395 0.0596,-2.41372 23.4218,-22.02122 2.08588,-0.47678 -0.20858,-1.75815 0.74496,-0.98335 1.34092,-0.53637 0.89401,-1.07274 0.0596,-1.60912 0.95355,-0.65556 0.0297,-1.46017 -1.16214,-1.13234 -0.56617,-1.63892 -1.57937,-0.9536 -1.63891,-0.17879 -0.74496,-1.19193 0.0596,-2.20508 -1.16214,-1.66877 -0.0297,-1.01314 -0.89401,-0.47678 -0.26818,-0.98334 0.65556,-0.56617 0.0894,-1.60912 -0.77476,-0.50662 -0.0297,-1.34093 -2.08589,-2.26468 -0.20858,-2.29452 -0.86416,-0.56617 -0.17879,-0.71517 -0.9536,0.149 -0.44697,1.22173 -1.37073,0.20859 -0.41718,0.65556 -0.68536,0.149 -0.44698,-0.77476 -1.25158,-0.0596 -1.63891,-2.59246 -0.50658,0 -0.0596,-1.31113 0.47677,-0.23844 0.29799,-0.95355 -0.47678,-0.29798 -0.74496,-1.7879 -1.16214,-1.01315 -0.32778,-1.96675 -0.9238,-1.37072 -0.0297,-0.59597 0.41723,-0.38738 0.1192,-2.7117 -0.90737,-0.43433 0.0164,-1.26654 -0.63211,-0.46356 -0.37929,-3.03422 -3.20277,-3.07635 -0.25287,-2.27563 -0.54784,-0.67426 0.11607,-2.4021 0.72678,-3.49778 0.75853,-0.46356 -0.12641,-3.07635 -1.55925,-1.68566 -0.46356,-2.65493 -4.04557,-2.90775 -0.042,-1.93853 -0.50565,-0.67425 0.0843,-2.19141 0.71639,-0.67426 0.54784,-3.58205 1.51711,-3.75061 0,-1.8542 -1.01141,-4.04562 -0.0843,-2.65493 1.98067,-1.89639 0.25282,-3.41346 -0.63211,-0.75858 0,-1.09568 0.88499,-0.71639 0.0843,-1.22214 -1.26429,-0.37924 0.46357,-0.71644 0,-1.01141 -1.5745,-1.52355 0.29496,-1.09574 0.18386,-1.88984 0.53033,-0.34365 0.042,-1.7278 -0.6146,-0.54134 0,-0.96926 -1.01141,-0.54784 0.16855,-1.55925 0.67431,-0.1686 -0.042,-1.43278 1.17996,-1.01141 0.042,-0.92712 2.10709,-0.50571 0.92713,-1.43283 2.35991,-0.58998 1.0114,-1.72779 4.42491,-3.03422 0,-2.23349 1.43283,-0.84286 0.0843,-1.34856 -1.85426,-1.3485 0.63211,-1.05354 -0.71639,-0.96927 0.67426,-0.25283 0,-0.6743 -1.13782,-0.88494 0.12641,-2.31782 1.22215,-0.58998 0.37923,-1.05354 -0.88494,-0.7164 0,-0.71644 0.96927,-0.8428 -0.12646,-2.9078 1.72784,-2.44424 0.71639,0.25288 0.25283,-0.42143 -0.21069,-0.54784 1.64352,-1.39069 1.51711,-0.58998 0.54784,-1.55925 2.99208,-2.61278 0.4844,-0.77384 0.36828,-1.56319 -0.93696,-1.835 -2.48637,-1.34851 0.0843,-2.82353 -0.75853,-1.09568 0.54784,-1.13781 1.34851,-0.42143 -0.25283,-1.51711 -1.05354,-0.29496 0.042,-1.98067 -0.71639,-0.042 -1.43283,1.05354 -1.93853,-2.69706 -1.81207,0.16855 -1.18001,-0.88499 -2.14922,0.12646 -0.5057,-0.63216 -1.51711,0 -1.26423,1.09568 -0.71639,-0.0843 -0.46357,-0.92713 -1.0114,0.042 -0.46357,0.8428 -1.39069,-1.64352 -0.92713,0 -0.71639,0.63212 -1.8964,0.042 -1.09568,1.34856 -1.0114,-0.16855 -2.31778,2.57059 -0.63211,0 -2.52851,2.57065 -0.75858,0 -0.58998,-0.92707 -3.16063,-0.0843 -2.31777,-1.39064 -1.30642,0 -2.48632,1.64352 -1.81212,-0.42143 -0.885,0.67425 -0.92707,-0.16855 -2.23355,2.14922 -3.20277,-0.0843 -0.8428,-0.63212 -2.57065,0.0843 -1.0114,-1.34856 -0.58998,0 -0.0843,1.09573 -3.45559,0.67426 -0.92713,-0.33716 -1.51711,2.44424 -0.75852,-0.33715 -0.75858,-1.34851 -1.68566,0 -2.44424,2.27564 -1.93848,-0.42143 -1.85426,0.58998 -1.90218,-2.59589 -3.13831,-0.21443 -0.35363,1.04039 -0.92713,-1.26423 -1.51711,-0.0843 -1.01141,0.92713 -1.8542,0 -0.50571,-0.67425 -0.75858,0.0843 -0.67425,0.67425 -2.78139,-2.19136 -1.01135,0 -1.60143,0.92713 -1.26424,-0.42142 -0.67425,-0.84286 -2.44423,-0.0843 -0.75853,1.09568 -0.42143,0 -1.17996,3.03421 -1.60138,0 -1.93853,3.11849 -1.68566,0.0843 -0.92713,0.92713 -1.26428,0 -0.58998,-1.34851 -1.0114,-0.25288 -0.58998,-1.85426 -1.34851,-0.92707 -1.5171,2.10708 -2.02942,-0.0553 -38.51095,-47.94409 -2.35996,0.0843 -1.86138,0.3947 -1.60911,-0.14899 -4.08243,2.56266 -1.48992,0.0297 -0.98335,-1.13234 -3.21828,-2.29448 -1.31113,0.32778 -1.43032,-1.16214 -3.33747,0.23839 -2.05609,-1.96674 -0.0596,-1.28134 -0.80461,-0.71516 -1.07274,0 -0.65556,0.62577 -3.27788,-0.0297 -2.17528,-2.08594 -0.74496,0 -1.01315,1.1026 -1.46017,-0.0894 -1.04294,0.53637 -2.432,-0.0513 -0.54784,0.67707 -0.62582,-0.0596 -0.47678,-0.80455 -0.62576,0 -0.59597,1.63891 -0.53637,0.0297 -0.62577,-0.83435 -1.84755,1.72831 -2.74145,1.04294 -2.71171,2.41372 -1.7879,0.0894 -0.47678,-0.50658 -2.62231,0 -1.9071,-2.65211 -1.13233,-0.17879 -0.62577,0.47678 -2.95009,0 -0.68537,0.68541 -0.71516,0.0596 -0.80456,-1.34098 -0.71516,0 -0.68541,0.77476 -1.60911,0 -0.62577,0.53642 -2.71171,0.0297 -1.43032,-1.78796 -0.86415,0.0894 -0.149,0.86415 -2.17533,1.37078 -0.47677,-0.0596 0.0894,-1.90715 -0.47677,-0.11919 -0.64497,0.98125 -0.49777,0.0451 -0.40729,-0.58834 -3.16785,-0.31677 -0.76933,0.99558 -0.6336,0 -0.4073,-1.99116 -1.4934,0.63354 -0.95032,-0.95037 -0.72407,0.0451 -0.90511,2.21752 -0.4073,0 -0.18104,-0.67886 -2.08169,0 -0.85986,-1.44814 -0.45255,0 -0.54303,0.63355 -1.0409,-1.04085 -1.0861,0.22631 -2.44378,2.26273 -1.53866,-0.0905 -0.72407,0.58828 -0.81459,0 -0.49777,-0.6788 -0.85985,0 -0.45256,0.81459 -1.94596,-0.0905 -2.85107,-0.22626 -2.17815,-1.21062 -6.53476,-11.45124 0.042,-1.7218 -0.179,-2.75293 -0.47677,-0.23838 -0.29799,-2.08593 -1.48997,-1.13234 -2.08589,0 -0.71516,0.59597 -2.26473,0 -0.20229,0.31882 -4.88842,-0.56894 -1.51711,-0.5057 -0.67425,-0.92715 0,-2.52846 -1.51711,-1.18001 -0.11981,-2.5292 -0.58675,-0.0654 0,-0.71516 0.68536,-0.62582 -0.0297,-1.7283 -0.53637,-0.29799 0.0297,-1.34092 -0.65561,-0.53638 -0.1192,-6.31736 0.80461,-0.62577 -0.0894,-3.12883 1.04294,-1.07279 0.0596,-2.86065 -0.53637,-1.25153 -0.77476,-0.59602 0.17735,-1.57441 1.29823,-0.26246 -0.0374,-0.3203 0.0579,-0.17378 0.15954,-0.0221 0.18304,-0.16145 -0.0184,-0.5934 1.26484,-0.88415 -0.0758,-0.63534 0.2051,-1.49374 2.13018,0.46271 0.97029,1.343 0.0697,-0.23353 0.27709,-0.14891 0.0907,-0.20297 0.0952,-1.56306 0.0585,-0.26317 -0.22702,-2.26798 -0.15749,-0.24377 -1.08345,-1.07412 0.72233,-0.84744 -0.18314,-1.37104 -0.46833,-2.60297 0.17854,-0.2919 -0.0107,-0.16648 -0.91879,-2.57059 -0.27284,-0.18267 0.17362,-1.9423 0.16681,-0.36876 0.17766,-1.25154 -0.62049,-0.3918 -0.1366,-2.13866 -0.42578,0.0328 -0.55424,-0.7236 0.0543,-0.31928 -0.15954,-0.27069 -0.27377,-0.13136 -0.2667,0.36739 -10.15603,-11.68782 -0.58982,-0.31175 -0.12723,-0.41642 -0.309,-0.0467 -0.10552,-0.28597 -0.73185,0.0506 -6.27902,-26.05228 -0.0534,-0.26933 -0.22041,-0.48917 -0.17316,-0.2196 -0.13655,-0.12953 -0.0108,-0.15371 0.21464,-0.15119 -0.49547,-0.54356 -0.32635,0.0218 -0.40509,0.37948 -0.15043,-0.0401 -0.66918,-0.72474 -0.11059,-0.21893 0.12969,-0.38267 -0.65859,-0.55804 -0.10143,0.11403 -0.0713,0.80581 -0.13839,0.0241 -2.71534,-0.50456 -0.28861,0.0222 -0.179,0.31813 -1.00695,1.61904 -0.80512,0.24276 -0.35528,0.45703 -0.32686,0.0732 -0.83533,-0.47024 -0.12221,-0.30856 0.12887,-0.31858 -0.0613,-0.15439 -2.07339,-2.04562 -0.111,-0.16762 1.23975,-2.40708 -0.35015,-1.30912 -0.79765,-0.50809 -0.42593,-0.043 -0.0994,-0.1163 0.35461,-0.35462 0.0759,-1.31814 -0.46019,-0.36351 -0.005,-0.8195 -0.38779,-0.14505 -0.12334,-0.18062 0.13993,-0.20329 -0.0108,-0.19226 -0.53719,-0.23625 -0.79529,0.51653 -0.13701,-0.0912 -0.18847,0.0236 -0.2026,0.16431 -1.91841,1.23444 -0.15237,0.16488 -0.10895,0.89521 -0.45225,0.11049 -0.2047,0.40753 -2.27057,-0.0107 -0.20623,0.59954 -0.66811,0.56785 -1.46662,0.9098 -0.46562,0.78172 -1.7837,-0.11432 -1.95451,1.19692 -0.48794,-0.12007 -2.00084,-0.62132 -2.81856,-0.38564 0.10153,-1.19959 1.57133,-1.74032 0.7128,-1.83421 1.98441,-4.1218 0.65065,-1.83489 0.40848,-0.53227 0.51691,-1.17093 2.28163,-1.7228 0.42956,-2.15828 0.62152,-0.47799 0.21714,-1.26478 2.92818,-3.0195 2.08794,-0.18791 0.0292,-0.29407 0.32681,-1.90365 0,-0.94779 0.81306,-1.62759 0.47703,-1.83741 0.68971,-0.84823 0.96533,-1.6894 0.71444,-0.78382 1.10971,-3.01937 2.11144,-2.71016 -0.1835,-0.36135 -1.8066,-1.24344 -0.37202,-0.38974 0.53561,-0.55576 -0.27131,-0.38837 -0.2175,-1.60434 0.5654,-1.79795 0.99702,-2.07343 0.38922,-2.71015 1.44051,-2.23331 0.70918,-1.21927 -0.1127,-2.78165 0.36496,-0.917 0.10061,-1.80502 0.32916,-0.12314 0.14085,-0.17731 -0.18396,-2.18073 0.15381,-2.4528 -0.0318,-3.63125 0.85868,-1.93479 -0.29364,-3.34858 0.2303,-0.26556 2.33344,-1.89967 0.11351,-0.90809 0.13834,-1.75337 0.76626,-1.58997 1.2989,-0.87709 0.85478,-1.6016 1.47861,-1.0919 1.16142,-1.78884 1.28184,-2.29943 0.25021,-2.44356 1.44374,-1.2333 0.5932,-2.566487 0.4693,-1.005015 1.51911,-2.872074 1.13531,0.05656 0.69371,-0.809123 2.02122,-1.735926 2.20175,-3.61665 0.88151,-1.497836 1.54194,-1.704909 -0.6805,-1.754168 2.82839,-2.324183 0.20255,0.772296 3.80165,-1.512663 1.71771,-0.714251 0.60928,0.612772 4.1579,-0.03103 7.07953,-13.05111 8.01244,-15.018051 2.68298,-0.693965 10.17436,-2.512768 6.43548,-2.207877 6.23867,-1.734897 6.43851,-2.151086 -0.42947,-0.713799 2.1355,-1.020068 0.53924,-0.397717 0.65961,0.118114 0.056,-1.140997 0.80456,-0.685369 0.29798,-0.506578 -0.42588,-0.441871 -1.03424,0.694103 -0.80092,-0.27692 -0.6294,-0.392494 0.14899,-0.625772 0.80456,0.268186 0.62576,-0.47678 0.0297,0.506578 1.40052,-0.0298 0.23839,0.56618 0.52767,-0.303099 0.52403,-0.574905 -0.0384,-0.820526 1.65637,-1.465246 2.30682,-0.799453 0.92375,-1.132354 2.38392,-0.566175 0.59597,-1.340938 0.62576,-0.47678 0.0297,-1.370741 -0.65556,-2.503092 -1.72468,-2.503091 -2.68554,-4.291016 -1.48992,-3.963228 -2.7713,-1.966715 -0.71516,-0.748579 -2.23017,-0.237358 -2.44424,-1.517103 -2.48637,-0.210708 -4.31954,-2.38101 -3.0763,-0.6110515 -1.87531,0.3371315 -1.79102,-0.6531993 -0.29502,-0.4635597 -1.98067,0 -1.3485,0.4635597 -0.33716,0.4635597 -0.61102,0.084281 -0.68608,1.048949 -0.40228,0.0894 0,0.521477 0.98335,0 0.20859,0.670469 0.52152,-0.119194 -0.34273,-1.072752 0.9685,0 0.59597,-1.251543 0.32778,0.014899 -0.55127,1.266442 0.31288,-0.0149 0.78966,-0.536376 0.83436,0.0298 0.0894,-0.566175 0.56617,0.372485 -1.16214,0.774764 0.35758,0.446981 1.11744,0.0447 0.65557,-0.446982 -0.68536,0.983358 -1.19194,-0.163891 -0.68536,-0.28309 -0.0149,0.789668 -1.38563,-0.0149 -0.17879,0.491679 1.57932,0.774764 -0.99825,0.357586 -0.50657,0.0149 -0.0149,-0.506578 -1.043,0.0298 -0.0596,-0.908861 -0.44698,-0.744965 -0.49167,0.432082 -0.67047,0.0596 -0.67046,0.685369 0.67046,-0.0149 0.0148,0.491678 0.44698,0.134098 0.14899,1.147249 -1.10254,0.0745 -0.59597,1.132349 -1.22173,0.223493 -0.53643,0.700268 -1.53461,-0.0447 0.0149,-0.670469 -0.56617,-0.238392 0,-0.849265 1.02804,-0.506578 0.81946,-1.162148 -0.49168,-0.357585 -1.34093,1.20685 -1.6836,-0.0149 -1.62407,2.2498 -2.38387,1.519733 -0.68536,1.087652 0.70026,0.432082 -0.0149,-0.417178 1.05784,-0.178795 1.50482,0.119194 0.0745,0.581079 1.57937,1.147248 -0.83436,0.0298 0.0297,0.595973 0.86415,0.625771 0.75986,0.134098 -0.96845,0.163891 0,0.432082 0.65557,0.670469 -0.98335,0.163892 -1.95185,0.0447 -0.84925,0.804562 0.0894,1.251548 -1.34093,0.0745 -0.53637,0.65557 -0.17879,-0.819466 -1.54956,0.178796 0.99829,-0.700273 -0.40228,-0.744965 -0.53642,-0.238393 -0.58107,-0.536376 0.0894,-0.521477 1.10259,-0.640671 0.0894,-0.685368 0.67046,-0.253292 -0.0297,-1.504834 -1.59426,0 -2.78615,1.102551 -4.96149,-0.0298 -0.59597,-0.640671 -0.75985,0.759869 -0.59602,0 -0.96845,1.400535 0.64066,0.208594 1.51977,-0.08939 0.0148,4.916782 0.34268,0.0894 0.26819,0.879058 -1.22174,2.875577 -1.40057,2.041211 -1.62401,4.365511 -2.04119,2.428595 0.0148,0.759865 0.53637,0.342686 -0.70026,0.253287 -0.44703,-0.923756 -0.83435,0.0894 -2.27958,1.936916 -3.35237,1.460137 -3.81425,1.996513 -2.87554,0.506578 -1.74326,-0.0149 1.32608,0.253291 -0.49167,0.67047 -0.67047,0.104299 -0.49172,1.087652 -0.67047,-0.0149 0.99825,-1.683625 -1.50482,1.102551 -2.02629,0.0149 -2.47332,1.683625 -3.26292,0.923761 -1.60917,0.0745 -2.11568,0.759864 -2.42862,2.115712 -1.19194,0.595973 -3.85894,4.529403 -2.41367,0.774763 -4.35062,2.786182 -0.78966,0.193689 -2.39882,3.143767 0.005,0.03948 -1.64352,0.800692 1.39064,-0.316063 -0.21069,0.442486 -0.37929,0.252851 0.021,0.758553 0.65315,0.484629 -1.0114,0.400348 0.021,-0.568914 -0.8639,-0.252851 0.16855,-0.842834 -1.8542,0.252851 0.0632,0.82176 -1.15886,1.032474 -0.99037,0.02109 -0.5057,0.73748 0.37929,0.337131 -4.23526,3.434553 -4.82519,1.622456 -7.92269,0.147497 -2.2124,0.54784 -1.08591,-0.474235 -0.76984,-0.389949 -1.66461,-0.358206 -0.94818,0.73748 -4.74091,-0.105354 -1.49606,-0.695337 -1.13782,0.674268 -1.58034,0.105354 -2.42314,-1.116759 -2.19136,-0.421417 -0.84281,-1.285319 -2.19141,-0.37928 -0.73748,-0.927114 -1.68566,-0.526776 -1.05354,0 -0.3371,-0.568909 -1.24319,0 -0.18965,0.611051 -0.63211,-0.695337 -1.34856,-0.02109 0.88499,0.526771 -0.10537,0.73748 -0.86389,0 -0.42143,-0.547845 -0.71639,-0.126423 0.6953,0.758548 0,0.421417 -1.51706,-0.02109 0.0843,-1.791022 -0.54784,1.116754 -0.63216,0.358205 -0.16855,0.54784 -0.29497,-1.0114 -0.88499,0.04214 -0.25287,0.863903 0.6743,0.316062 0.021,0.906051 -1.05354,0.358205 -0.48461,-1.432821 -0.5057,0.505702 -0.61107,0.105354 0,0.884977 -0.77963,0.779622 0.44247,0 0.59003,0.505703 -1.05354,0.54784 -0.69535,0 0,0.779622 -0.42142,0.04214 -0.021,0.990331 -0.69534,0.189634 -0.0632,0.484634 0.77962,0.421417 -0.10537,0.421417 -0.58998,0.252851 0.042,0.82176 0.5057,0.547845 0.042,2.992061 0.42143,0.358206 0.10537,2.275656 0.56888,0.252876 -0.90603,0.674253 -0.44247,1.09568 -2.86556,1.885747 -1.11668,0.558285 -2.29673,0.252826 -2.44423,0.400333 -1.66462,0.02099 -4.36162,-0.906036 -5.87879,-1.559244 -5.03598,-2.043853 -4.69878,-2.170343 -3.16062,-0.400348 -0.77963,-0.442486 -0.3266,-0.684805 -0.0107,0.937657 0.92713,0.632125 -0.3582,0.358205 0.7165,1.190825 -0.73734,-1.19019 -0.21074,0.210709 -0.80066,-0.579451 -0.0596,0.855926 0.56274,0.135152 -0.14751,1.021184 0.3818,0.65321 0.50571,0.04214 0,0.884992 -1.11673,0.379238 0,-0.969216 -0.8639,0 0.88495,-0.737485 -0.6953,-0.674304 -0.14756,-0.505687 -0.3371,0.842839 -0.67425,0.08427 -1.11678,1.517108 -0.88499,0.02109 -0.27392,1.327462 -2.63383,1.685658 -0.27392,1.179955 -1.5382,0 -1.39064,1.011405 0.021,1.327462 -0.67426,1.791028 -2.29672,0.505702 -1.24831,1.529446 -2.31265,0.409088 -0.54784,1.601386 -1.28533,0 -0.31606,0.40033 -0.27392,0.16855 -0.82176,0 0,-0.75853 -0.52679,0 -0.40034,1.09568 0,0.80662 -1.06665,2.16387 -0.25943,1.73067 -2.91292,0.5581 -1.41542,0.99825 -1.53467,0.16389 -2.04119,2.30943 -1.32603,0.67046 -0.50657,1.922 -2.01145,0.0745 -1.25153,1.10254 0,0.43213 1.34093,0.0745 0.80456,0.56617 -1.05785,0.35758 -0.0148,0.46188 0.50658,0.11919 0.0148,0.92375 0.92375,0.68536 -0.0148,0.43208 -0.58107,-0.0149 -0.0148,0.43208 -0.76165,0.24702 0.95534,0.25955 -0.38241,1.16505 0.43213,0.84925 0.72796,0.0787 -0.69417,0.86009 -1.16618,0.0893 -0.81705,-0.51304 0.95114,-1.33446 -0.44698,0 0.0546,-0.98621 -0.37248,0.13409 -0.40228,0.90886 -1.89429,1.05756 -0.20649,1.29651 -0.50663,0.11919 -0.0148,0.49168 1.60917,0.0149 0.33116,0.80455 0.44355,-0.58107 0.68536,0.43208 -0.50657,0.65562 0.25328,1.13234 0.43208,0.14899 -0.28308,2.60736 -1.01315,0.61086 -0.47677,0.64072 -1.19194,0.0149 -0.44703,0.58107 -0.64066,-0.32778 -0.0297,-1.83266 -0.49167,0.78966 -0.0148,1.0281 -0.73006,0.84925 -0.44698,0 -0.73006,0.40228 0.64067,0.13409 -0.16389,0.89396 0.34268,0.61086 0.16389,0.92375 -0.84926,0.43213 -0.67046,1.02805 -1.28138,0.84925 -1.26643,0.41718 -0.89396,0.81945 0.26819,0.68537 0.49167,-0.1192 0.67047,0.25329 0.35758,-0.65557 1.13239,-0.10429 0.11919,-0.95355 2.02629,-1.922 0.83436,0.0149 0.50657,-1.57936 1.34098,-0.0149 0.95355,-1.26643 0.81946,0.17879 -0.26819,0.80455 0.44698,3.24808 0.64066,0 0.19369,0.37248 -1.08764,0.86415 -0.77476,-0.62576 -0.32778,0.70026 -1.36325,1.55662 -0.7315,-0.87456 -0.76907,0.51625 1.0114,0.25282 -0.35819,2.19136 1.0114,0.83231 1.02195,-0.31606 -0.0108,0.91658 1.02195,0.82176 0.40034,0.69535 0.52674,0 0,1.00086 -0.24228,0.63206 -0.8534,-0.12641 0.0948,-0.99031 -0.67425,-0.0318 -0.0843,-1.13786 -1.08519,0 -0.94817,-1.32747 0.0108,0.7059 -0.65321,0.10537 -0.0108,1.15886 1.10623,-0.49516 0.64266,0.25288 -0.158,0.57943 -0.64267,0.76908 -0.96926,0.49515 0.17909,1.11678 0.58998,0.46356 0.0843,-0.99031 0.44247,-0.63217 0.91658,-0.72693 0.55839,0.0843 0.0317,0.94822 -0.84285,0.48461 -0.84286,2.11758 -0.6637,0.0108 -0.69535,-1.01141 -0.18964,0.5057 0.93767,1.09568 -0.74803,0 -0.25283,1.26423 0.75853,0.60053 -0.66375,0.40033 -0.34765,0.93768 -1.20105,0.99031 0,0.36874 0.45302,-0.0102 0.1686,1.17996 -0.5268,0.3266 -0.0632,2.34936 -0.94822,0.76913 0.0317,1.43278 -1.93853,1.16946 -0.85341,0.75853 -0.61102,1.3591 0.76908,-0.66375 2.35996,0.0108 0.6953,0.96926 0.54784,0.11587 0.60052,-0.56888 0.6848,1.12727 0.15805,0.88499 1.09568,0.57943 0,1.42228 0.67426,0.26338 0.0317,3.16062 -1.10623,2.11764 -0.58997,2.21245 -0.885,1.09568 -1.17995,1.93854 -1.73834,0.6637 -0.32661,0.45302 -0.879,-3.1e-4 -0.23849,-0.42912 -1.66871,-0.0745 -0.37248,-0.68536 -0.83835,-0.0157 -0.0822,0.31345 -0.69627,0.0127 -0.40515,0.56969 -0.9748,0.2532 -0.10127,0.68363 -0.82289,0.0633 -0.076,-0.20255 -0.64563,-0.0506 0.16456,-0.51906 -0.20828,0.0988 -0.84854,0.0679 -0.27151,0.3394 -0.20363,-0.0339 0.10179,-0.44123 0.71275,-0.30547 0.23762,-0.64486 0.91638,0.40728 -0.0338,0.47517 0.37335,-0.13576 0.16968,-0.67881 -0.30546,-0.64487 -1.25579,-0.10182 -0.78064,0.30547 -2.47762,-0.034 -0.76309,0.29407 -1.00269,-0.41491 -0.27661,-0.82983 -0.69152,-0.0691 -1.34846,0.79525 -0.51864,1.27932 0.44948,0.38033 0.0692,0.82982 -0.78171,0.41214 -2.11568,0.81945 -1.1152,0.82418 -1.37442,0.32917 -0.40728,-0.16971 -0.84851,0.30547 -0.23759,0.84851 -1.56125,1.22185 -0.47517,-0.0339 0,0.30546 0.47517,0.40729 -0.1697,0.5091 0.82696,0.10123 -0.81946,1.34097 -2.8011,1.04295 -0.80834,0.80281 0.24899,1.14003 -0.47574,0.80875 0.52331,0.9039 -0.33301,0.0476 -0.0951,1.8078 -0.52331,1.71265 -0.42816,0.14272 -1.90296,1.47479 -0.19029,0.80876 -0.47574,-0.28544 -0.57088,0.42816 0,1.18934 -0.80876,2.37869 -0.66603,0.42816 -1.8078,1.37964 -0.23787,0.99905 -0.57089,1.09419 -0.95147,0.33302 -0.14272,0.47574 -1.37964,0.66603 -1.04662,-0.14272 -1.30563,0.32189 -1.09964,0.42383 1.04295,0.1639 0.0139,1.02812 -0.85029,1.02811 -2.96495,1.44523 -1.66876,1.66876 -0.43207,1.35583 -2.0263,0.67046 -1.32608,0.99825 -2.77125,0.32778 -0.50657,0.9536 0.26819,1.60911 -0.70027,1.16214 -3.14378,0.56617 -4.52941,0.9387 -0.99824,0.59597 -3.90364,0.0148 -1.47503,2.17528 -2.04124,1.51972 -0.41717,1.38567 0.49172,0.80456 -0.14904,-0.93865 0.75991,-0.894 0.49167,0.56622 -0.23839,0.67046 0.92375,0.34268 0.84926,-0.10429 2.05609,1.01315 1.74326,0.73006 1.05784,2.7862 0.86415,1.57931 1.63897,1.17704 0.13409,0.75986 -0.58112,0.56617 0,1.10259 0.50662,0.25329 0.0745,1.57931 -0.61092,0.71516 -0.0745,1.07275 -0.41717,0.50662 0,0.52147 0.52147,0.25329 0.0745,1.19193 0.84931,2.63716 0.16389,7.07723 0.50657,0.77475 0,-1.68361 0.26819,0.59597 0.81946,0.0148 -0.0745,1.19194 -0.59597,0.32778 -0.43207,1.10254 -0.149,2.96499 -0.93865,0.47678 -0.0148,0.38738 0.58106,0.0445 0.0149,1.53462 -1.19198,1.01319 -2.07099,0.149 -0.64067,0.59596 -2.39882,0 -1.48992,-0.61086 -0.86416,0.0148 -1.10254,-1.10259 -0.34268,0 -0.17879,-3.45661 0.61087,-0.19369 0.49167,-1.65386 -0.99824,0.41717 0.43207,-0.84925 0.55127,0.0894 0,-0.49167 1.35583,0 0,0.49167 0.67046,0.17879 0.1043,1.1026 0.50657,-0.1192 0,-0.65561 1.41548,0 0,-0.41718 -0.84931,0 -0.74496,-0.77476 0,-1.01314 -0.50657,-0.31289 0.68536,0 0.16389,0.65557 0.75991,0 0.47678,0.34268 0.0445,-0.50657 -1.04299,-0.26819 -0.23839,-0.65556 0.74496,0.10429 0.34273,-0.44698 0.67047,-0.0894 0.17879,-0.70026 -0.68537,0.0445 -0.52152,-0.75991 -0.55127,0.81951 0,-1.23669 -0.10429,-0.46187 1.16218,-0.31289 -0.0745,-0.56617 -1.16219,-0.0445 -0.37248,0.53637 -1.74321,0 0.32779,0.83436 -0.47678,0.16389 -0.11919,0.50657 -0.92375,0.0148 0.0148,-0.50657 -1.17709,0 -0.41718,-0.67047 0.16389,-2.13058 0.83441,0.19369 0.61086,-1.02805 -0.0148,-0.65556 -0.74496,0.98334 -0.37253,-0.67046 -0.64067,-0.0596 -0.16389,-0.58112 0.58107,-0.0297 0.50662,-0.84926 -0.8493,-0.16389 0,-0.83435 -0.67047,-0.1639 -0.16389,-0.58106 0.87905,0 0.22349,-0.90886 -1.48992,-0.13409 -0.64066,0.73006 -0.52634,-0.91868 -0.39531,0.0379 -0.58107,0.83435 -1.04299,-0.23838 -1.40053,-2.65211 -1.7879,-1.40053 -1.48992,-3.96323 -1.81775,-1.34093 -1.47503,-1.44523 -2.04121,-0.34268 -1.84753,-1.32608 -0.0745,-0.67046 -1.35584,-0.44698 -0.0149,-0.87905 0.62577,-0.37248 0,-0.84925 -1.10255,-1.0579 -0.65557,-2.10079 -1.44524,-1.98159 -0.92376,-0.16389 -1.11745,-1.47507 -0.17879,-0.90885 -0.49168,-0.22349 -0.18686,-2.09299 -3e-5,0.002 -0.48121,1.8132 0.11713,1.05421 -0.46853,0 -1.17134,0.70277 -1.2299,2.40123 0.0586,0.64425 -0.8785,0.58568 -0.64423,2.04984 -0.58567,0.81992 0.93707,0.40995 0.29283,0.93707 -0.40997,0.99563 0.3514,0.35144 1.63987,-0.11715 1.52273,1.46417 1.9327,3.8654 -0.40997,1.28844 0.29284,1.34702 1.17133,2.34271 -0.1757,0.58563 1.0542,0.64425 0,1.0542 0.3514,1.11279 1.11277,0.76134 0.64423,-0.0586 1.11277,1.34702 0.23426,1.52274 -0.40996,0.46853 0.46853,0.17572 0.3514,0.87849 -0.29283,1.0542 0.29283,0.64425 0.64423,0.40996 -0.1757,1.46417 -0.58566,1.17135 0.52709,1.05416 0.64424,0.29286 0,0.6442 1.2299,0.5271 0.7028,1.4056 -0.0586,0.70282 0.11713,0.5271 0.64424,0.23424 0,0.99564 -1.4056,0.35144 -0.7028,-0.17572 -1.52273,0.17572 -2.69407,0.58567 -1.34704,0.23424 -0.64422,-0.17571 -1.2299,1.69845 0,0.99564 -0.40997,0.93706 0.76137,1.81555 0.76136,0.70282 0.58567,1.87413 -0.11714,1.34702 -1.0542,0.40996 -1.2299,-0.35139 -0.93706,0.40996 -2.16697,0.23429 -1.0542,1.11273 -0.3514,1.9327 -1.0542,0.7614 -0.46853,0 -0.58567,0.58567 -0.23426,1.58126 -1.40561,1.93275 -0.70279,-0.11714 -0.93707,0.81991 -0.46853,1.52274 -0.93707,1.28845 -1.17133,0.0586 -1.757,-1.81555 -1.63987,-5.44671 -1.81556,-3.16257 -2.92834,-1.75703 -0.93706,0.64425 -0.70281,2.10842 0.23427,3.16257 1.34704,4.04111 1.46416,1.69841 -1.28847,2.4598 -1.81556,0.17572 -0.5271,0.70277 -0.7028,-0.17567 -0.46854,-0.35138 -1.69843,1.05415 -0.29283,2.57695 -3.16883,10.48746 0.87363,0.6059 0.0745,1.14724 1.60913,0.38738 1.05785,2.01144 2.4435,0.98335 0.55127,2.21998 0.95356,0.0148 1.86242,1.46017 0.73007,1.02805 1.07275,0.0596 -0.44698,0.87906 1.53463,1.11744 -0.0745,1.34098 0.56617,0.28308 -0.0866,1.43846 -0.57945,-0.0527 0.24232,0.60052 -0.71641,-0.31605 -0.46356,0.79017 -0.91658,0.0948 0,0.45302 0.48463,0.23178 -0.0211,0.65316 -0.63212,0.24233 -0.0105,1.56979 0.68481,0.46356 -0.0421,0.75853 -0.69534,0.3477 0.60052,0.5162 0.0527,0.5057 0.53731,0.38984 0,-0.96927 0.49517,-0.14751 0.11588,-1.49601 0.88498,-0.0108 0.23178,0.54784 1.55925,0.90603 0.75855,0 2.47582,2.70761 1.58032,2.94994 0.16856,1.53815 0.96927,0.47412 0.23178,0.84285 -0.69534,0.16855 -0.0632,0.49516 0.5057,0.20019 0.18964,0.97976 -0.66373,0.0738 0.30553,0.45302 0.25285,0.62157 0.33713,0 0.26339,-0.61103 0.45302,0.0102 1.05355,-0.67425 -0.58999,-0.158 0.0211,-1.27483 0.72695,-0.57943 2.30726,0.0317 -0.0632,0.99036 0.66373,-0.62161 0.69533,0.0738 0.37928,1.45388 0.53731,0.12641 -0.0105,0.36875 -1.11676,0.3266 0.0105,0.51625 1.0114,0.23178 -0.67427,0.49516 0.72695,0.67425 0.77962,-0.0102 0.52677,0.56888 0.10535,0.97982 -0.71641,0 0.71641,0.47406 1.23265,0.11592 1.28532,0.91658 -0.0105,1.04299 -0.4741,0.0108 -0.47409,1.85421 -0.96926,0.71644 0.0211,0.82176 0.46356,0.24233 -0.18964,0.92708 -0.40035,0.0527 -0.36873,1.44338 -0.64267,0.021 0.1159,0.55839 0.91658,0.64266 -0.0211,1.00086 -0.60052,0 -0.5373,-0.31606 -1.97013,0.38983 -0.0105,0.88495 0.3266,-0.61103 0.45303,-0.0107 0.41088,1.15891 1.17997,-0.0108 0.6532,1.10623 0.0843,3.43455 -0.40035,0 -0.54784,1.00085 0.47409,1.12728 -0.57945,0.0107 -0.20017,-0.48461 -0.94819,-0.11592 -0.89551,-1.43283 -1.32746,-0.0526 -0.37928,-1.67516 -0.3266,0.0738 0.0211,4.27735 -0.61106,0.31606 0.0632,1.60138 0.62159,0.60053 0.41088,1.92799 0.6532,0.44252 1.49603,1.68566 0.23178,0.94817 1.39068,0.77962 1.34853,1.73834 0.30553,1.70676 0.58998,-0.0632 -0.1791,-2.10708 -0.51624,-1.21155 0.38981,-0.0632 0.77963,2.20191 0.0632,1.5487 0.53731,0.18964 0,0.32661 -1.36961,-0.021 -0.0105,1.41174 0.25285,0.26337 0.16857,1.88585 1.0114,1.16941 0.61105,3.42405 0.71641,0.34765 0.16857,1.1905 1.26425,1.3696 0.10535,0.60053 0.52678,0.65321 0.36874,-1.44338 -0.0527,2.17032 -0.33713,0.17909 0.0105,0.95872 -0.65319,0.46357 -0.11589,0.76907 -1.02194,0.42143 -0.40034,2.15977 -0.70588,0.5268 -1.20104,-0.0108 0.0527,0.54784 -0.87444,0.64267 -0.0211,1.33801 -1.59085,0.63211 -0.10536,0.48461 -0.74801,-0.021 -0.0105,-0.47411 -0.73748,-0.3582 0.24232,-0.35819 -0.0211,-0.47412 -1.25371,0.0632 -0.37928,0.43192 -1.05354,0.23178 -0.0105,0.36874 -1.30639,0.65321 -0.25285,0.41088 -0.67427,0 -0.44249,-0.48466 -0.75855,-0.0108 0,0.43192 -0.96926,1.19051 0.0105,2.39155 -0.60052,0.23178 -0.48463,1.55925 -0.64266,0.44247 0.20017,0.5057 2.00174,0.0108 0.0527,0.38984 0.43196,0.60052 0.3582,-1.07463 1.10623,-0.0632 0,-0.52674 0.31606,0 0.52677,0.52674 1.28532,1.55925 1.04301,0.11592 0.0211,0.54784 0.45303,0.021 0,0.97981 -0.69534,0.13696 0.18964,0.69535 0.62159,0.25282 -0.0105,0.75858 -0.74801,0.25283 0.021,1.24319 0.58998,0.13696 0.58999,1.10622 -0.0316,0.71639 -0.6848,0.25288 0.30553,0.47411 1.11676,0 0.80069,0.96922 0.22124,0.80072 -0.43195,0.56893 -0.0527,0.6953 0.36874,0.3477 -0.0105,0.77962 -0.61106,-0.58998 0.0211,-1.02195 -0.49517,0.49515 -0.0421,3.88757 0.69533,0.81126 -0.54784,0.0527 -0.24231,0.99031 1.63299,-0.26338 0.67427,-1.0114 -0.24232,-0.31606 1.5171,-0.82176 0.0105,0.61102 -1.06408,0.89554 -0.18963,1.94908 -0.33714,-1.09573 -0.62159,0.0317 -0.0632,0.76912 -0.40035,-0.021 -0.3582,1.32746 -0.4741,0.021 0.11589,2.7392 0.36874,0.38978 0.0527,5.78396 0.54784,0.20019 0,1.55925 0.8639,0.5057 0.0211,1.8753 0.66373,0.37929 0.10535,-0.97981 0.42142,-0.31606 0,0.96927 0.35821,0.61102 -0.26339,0.86395 0.37928,1.01135 -0.61106,-0.91658 -0.11589,-0.6848 -0.44249,0.3477 -0.0105,3.51882 0.63212,0 -0.10535,-0.52674 0.4741,0 1.25371,-0.86395 -0.18964,1.10622 -0.46356,0.10537 -0.12642,0.66376 0.31606,0.36869 0.86391,-0.0107 0.0105,0.94817 -0.45302,0.24233 2.63386,1.82262 -0.0839,1.04008 -0.42182,0.46648 -0.12643,-1.32751 -0.79016,-0.41083 -0.74801,-0.63212 -1.10622,0.18965 0.0211,3.51882 0.73748,-0.40033 0.80069,0.0107 0.0105,0.37929 -0.87444,-0.021 -0.21071,0.35819 0.55838,0.57943 -0.36874,0.45302 -0.66373,0.0108 0.0843,3.67688 0.63213,0.12641 0.0105,0.32661 -1.14836,0.62156 0.0105,1.14837 0.54784,0.3477 -0.0527,0.88494 -1.03247,0.65321 -0.0632,3.63474 0.25285,1.21154 0.7164,0.28447 -1.3696,0.11592 -1.36961,1.21154 0.40035,0.25288 -0.29499,1.05354 -0.71641,-0.0107 -0.0421,-0.85335 -1.21157,1.28532 0,0.77963 -0.87444,0.88494 0.0316,0.8323 -1.41175,0.38984 0.22124,0.90604 -0.67427,0.5057 -0.021,0.28447 1.20104,-0.49521 0.60052,-0.96922 1.11675,0.0108 0.15804,0.42142 -0.67427,-0.0108 -0.0105,0.55839 -1.61192,0.40033 -0.0105,0.60053 0.55837,0.54784 0.99033,-0.0108 0,0.43193 -1.89637,0 -0.0105,-0.48461 -0.44249,0.0107 -0.62159,0.5162 -0.18963,-0.52675 -1.53818,-0.0108 0.0105,-0.33715 1.30639,-0.14746 -0.0632,-0.46356 -0.70587,-0.5268 -0.0105,-0.65321 -0.41088,-0.0107 -0.11589,0.65321 -0.87444,0.43197 -0.0948,2.92885 -0.58999,0.22123 0.20018,0.95872 1.27478,-0.25282 0.20018,-1.29587 0.18963,0.60052 1.17997,-0.0843 0.66373,-0.64267 0.45303,0 -0.0105,0.95872 -0.88498,-0.0107 -0.3582,0.71644 -2.21244,0.1896 -0.0632,2.97103 0.33714,-0.6743 1.02194,-0.0526 0.34766,-0.47411 1.04301,0 1.44336,-1.5382 0.42142,0.1686 -1.13783,1.0219 0,0.42143 1.44335,-0.0108 0.10536,0.30551 -1.13783,0.0632 0,0.40038 0.74801,0.48461 -0.0211,0.99036 -0.36874,0.042 0.0211,-0.51625 -0.80069,-0.76908 -0.16857,-0.74803 -0.61106,0 -0.53731,0.89549 -0.69533,-0.0108 -0.20017,0.72693 -0.77963,-0.0843 0.0211,0.73748 0.34767,0.042 1.16943,1.13781 0.4741,1.63298 0.69533,0.5057 -0.13696,-0.99031 0.74802,-0.69535 0.60052,0.0843 0.33713,-0.63212 -0.72694,-0.26337 0.23178,-0.76913 0.8639,0.46357 0.35932,-0.79074 -0.38627,0.78464 0.20859,1.0281 -0.92376,0.89395 0,0.34268 0.47678,-0.0596 0.78967,0.56617 0.0149,0.52147 1.95181,-0.17879 0.23839,-0.31288 1.35584,-0.71517 -0.99825,1.14724 -1.20685,0.17879 -0.0447,0.90885 -0.26819,0 -0.16389,-0.55127 -1.89222,-0.0596 -0.23839,-0.58107 -0.37249,0 0,1.04294 1.04296,0.61087 0.0596,0.89395 1.41544,0.67052 0.0596,1.04294 1.02805,-0.29798 -0.0149,-0.93865 0.49168,1.13234 0.17879,1.90709 0.46188,0.0894 0,0.49167 0.87907,0 0.13409,-0.86415 1.50483,-1.59422 0.47678,-4.02283 1.17705,-0.31288 -0.0149,-0.53638 -0.58107,-0.28308 1.17704,0 0.50658,-0.53637 0.87906,-0.0745 0.1192,-0.75991 -0.58108,0 0.34269,-0.67046 -1.05785,0 0.81946,-0.40228 0.87906,0.35758 0.0298,0.75986 0.32779,0.17884 0.0149,1.14724 0.67047,0.59597 0.0447,-0.64067 0.87907,-0.0297 0.14899,0.59596 2.2945,0.0148 -0.58107,0.43208 -1.25155,0.0596 0.0298,0.81945 0.47678,0.0596 -1.02806,0.71516 -0.0149,0.92375 -0.44698,0.0149 -0.19369,0.49172 -0.98336,0.1341 0.68537,0.0445 0.0596,0.41718 0.75987,-0.0148 0.19369,0.44698 0.52148,0.0297 0.0149,0.38738 -0.47677,0.17879 -0.0149,1.13234 -0.53638,-1.7879 -0.46188,0 -0.20859,0.46187 -0.43208,0.0446 -0.22349,0.47677 -0.84926,0.0149 -0.52148,0.74496 0.0149,-0.68536 -0.87907,0.0148 1.10256,-0.43207 0.28309,-0.55127 0.67046,0.0297 -0.31288,-0.74496 -1.14725,0.14899 -0.44698,0.59597 -1.05786,0.0596 0.41719,1.10254 -0.31289,0.11919 -0.20859,-0.31288 -0.89396,0 0.17879,0.64067 0.87907,0.0745 0.0447,0.35758 -0.58108,-0.0297 -0.0149,0.77475 -0.80456,0.0149 -0.0298,0.80461 0.50658,0.0149 -0.11919,0.53637 0.89396,0.16389 0.65557,-0.67046 0,0.62576 0.50658,0 -0.0447,0.81946 -0.67047,0.0894 -0.37249,0.41718 -0.49167,0.0745 0,0.52147 0.64067,0.29798 0.0149,0.52148 0.61087,0.58107 1.02806,0.0894 0.11919,0.52147 0.41718,0.0148 0.70027,-0.68536 2.83088,0.0297 0.41718,0.71516 0.13409,-1.02804 1.74323,-0.58107 0.86414,-1.14724 1.65387,0.1341 0,-0.47678 0.43207,-0.55127 -0.59596,-0.29798 0.14899,-1.17709 -0.68537,0 -0.8791,0.9983 -0.31288,-0.41718 1.14729,-1.0132 1.28133,0 0.13409,0.9685 3.29272,-0.14904 -0.95355,0.58112 -1.26643,-0.0894 -0.0745,0.55127 -0.83436,0.20859 0.0149,0.38738 0.75986,-0.0596 0.92375,-0.49167 1.40053,0 -0.20859,0.41718 -1.34093,0.0149 -0.0447,0.41717 0.93865,0.26819 -0.10429,0.41718 -0.77476,-0.20859 -0.89395,0.22349 0.53637,0.53637 -1.05785,-0.0148 -0.31288,0.84925 -0.13409,-0.92375 -0.62577,0.98335 -0.65556,0.0297 0,0.44697 1.28133,0.49168 -0.47678,0.46192 -0.46187,-0.35758 -1.0579,-0.11924 -0.90884,0.61092 0.31289,0.47677 1.56445,-0.0149 0.0149,0.58107 -1.10259,-0.17879 -0.73005,0.31288 -0.53638,-1.19193 -0.71516,-0.0596 -0.1043,0.59597 -0.55128,0 0.1043,1.60911 1.04295,0.0149 0.74497,-0.74496 -0.10429,0.61087 0.56616,0.37248 0.47677,0.52147 -2.53287,-0.11919 0.0149,0.47677 0.74497,0.41718 0.0149,0.74496 0.83436,0.13414 -0.0149,0.90885 0.31287,0 0.65557,-1.50487 0.56622,1.41548 -0.68542,0.34268 0.17879,1.16214 -0.29798,0.0149 -0.44696,-1.02805 -1.93692,0.0297 -0.25329,0.86415 0.65558,0.50657 0.0149,1.53462 0.77476,0.11919 0.61087,-0.81945 0.16388,1.07274 -0.77475,0.40233 -0.35758,-0.41723 -0.75987,0.11919 -0.13409,-0.58106 0.0447,-1.19194 -0.70027,-0.43208 0.41718,-1.48992 1.59423,-0.0148 0.1341,-0.58107 -0.95356,-0.29799 -0.11919,-0.8344 -1.19195,-0.28309 -0.0596,-0.61087 -0.53638,0.1639 0,4.42511 -0.47677,0.17879 0,0.83435 1.43033,0.1192 -0.71516,0.14899 -0.0149,1.08769 0.87906,0.31289 -1.10255,0.17879 -0.0596,0.87905 -0.75987,0.65556 -0.95356,0.90886 0.50659,0.58106 -0.68538,0.1192 -0.16389,-0.50658 -1.56443,-0.0297 -0.37248,0.77476 -0.47678,0.0745 0,0.55127 1.44523,0.34274 1.72833,1.29623 -0.26819,1.02804 -0.46188,0 -0.0596,-0.99824 -1.31114,-1.16214 -1.41544,-0.14899 -0.13409,-0.61092 -0.53638,-0.40228 -0.25329,1.23668 -0.98336,0.70027 0.38739,0.35758 0.0596,-0.46188 1.32605,0.19369 0.83436,-0.43208 -0.20859,0.73007 -1.31114,0.13409 0.46188,0.70026 0.93865,-0.22349 0.149,0.32778 -0.73007,0.23839 -0.20859,0.96845 0.47678,0.11919 0.0149,0.55127 -0.83437,0.47678 -0.25328,1.34098 -0.41718,-0.37248 -0.0447,-0.53637 0.71516,-0.68542 0,-1.98159 -0.70026,-0.1192 -0.32779,-0.62576 -0.53638,-0.0149 0.0596,0.59597 -1.65383,0.43208 -0.13409,0.67046 -0.47678,0.37248 0.0745,0.41718 1.01315,0 0.95356,0.65561 0.0149,0.40228 -0.37248,0.13409 -0.84927,1.41543 0.0894,0.44697 0.46188,-0.0148 0.1341,0.64066 -1.44524,0.31288 0.47678,0.96845 -0.55128,-0.29798 -0.1192,-1.01315 0.55128,-0.32778 -0.0745,-2.23488 -0.28308,0 -0.1341,0.84926 -0.40228,0.10429 -0.28309,0.52147 -0.80456,1.14724 -0.0149,1.8177 -0.96846,0.20864 -0.0298,0.81946 1.13235,0.77476 0.1341,2.07099 -0.41719,0.0148 -0.0149,-1.16213 -0.70026,-1.11744 -0.58108,-0.22349 -0.0298,-1.08764 -0.52147,0 -0.37249,0.80455 -0.61087,0.64067 -0.98336,-0.16389 -0.52148,0.59597 0.67047,0.81945 0.78967,-0.17879 1.90711,0.98335 0.49168,0.52147 -0.87905,-0.13409 -0.59598,-0.78966 -1.50484,-0.0445 -0.47678,0.44697 -0.41717,-0.92375 -1.01316,0.53637 -1.28135,1.96675 -1.51973,0.89395 -0.0149,1.60911 0.32779,-0.0745 0.28308,-0.65557 2.19021,0.149 0.11919,0.58106 1.02806,0.17879 0.62577,-1.43032 2.04121,-0.74496 0.90886,-1.16219 0.41719,-0.0149 -0.91628,1.68484 z m 136.02106,-431.023602 1.09573,-0.674253 0.84281,0 0.0843,-1.095695 -0.75853,0.758543 -1.17995,0.589978 z m -66.78931,93.258562 0.0206,-0.81374 0.80343,-0.27811 0,0.44292 -0.28841,0.35021 -0.0309,0.54592 z m 23.48348,-45.00196 -0.52531,-0.34259 -0.34258,-0.0228 0.43397,-0.25124 z m 1.73578,-3.35737 -0.52531,-0.11419 0.18273,-0.31975 0.31975,0.0685 z m 0.63949,5.13883 -0.25119,-0.22839 0.50243,-0.27407 z m -0.86789,-1.71294 -0.31974,-0.0457 -0.11418,-0.68518 0.89073,0.0685 0.36541,0.0685 0.50248,-0.1142 -0.9364,0.68517 z m -2.39811,0.77653 -0.31974,0.13704 -0.47964,-0.75369 0.70804,0.0457 z m -3.64482,26.0087 0,0.42414 -0.50366,0.34462 -0.053,-0.2916 z m 2.01467,-2.30629 -0.55665,0.37113 -0.13256,-0.39764 0.58317,-0.45065 z m 1.7496,-1.24592 -0.53017,0.34461 -0.3711,-0.26508 z m 1.82912,1.90865 -0.76876,-0.47717 0.0266,-0.2916 1.29894,0.50368 z m -6.89233,-2.54487 -0.53018,-0.0265 0.18555,-0.47716 0.39767,-0.10604 z m 2.4388,-0.68923 -1.80259,0.10603 0.0795,-0.68923 0.47718,-0.37113 0.13256,0.26509 1.19291,0.26509 z m 13.57702,-30.28233 0.5057,0 0.58998,-1.0114 0.42142,0.33715 0.58998,-0.1686 0.25288,-0.25288 0.58998,-0.3371 -0.0863,-0.90627 -0.92713,-0.21623 -0.5037,-0.64748 -0.67431,0 -0.3371,-0.75853 -0.0843,1.43283 -0.53842,0.95589 z m -42.43594,72.73614 0.62033,0.10492 0.0431,-0.41672 -0.54077,0.13994 z m -145.855786,413.38637 0.875335,-0.009 1.588112,0.6784 -0.01874,0.11878 -0.09066,0.0625 -2.038282,-0.4439 z m -1.522248,-1.55167 -1.157601,-0.48594 -0.0062,-0.21668 0.594278,0.0619 0.603561,0.52004 z m 43.699814,-77.15815 0.0744,0.33475 -0.37194,0.33475 -0.27896,-0.0184 0.14878,-0.50211 z m 1.13554,0.11126 0.51923,-0.0399 0.31952,-0.39941 0.51923,-0.11981 0.1997,-0.83876 0.3994,-0.23967 0.15976,-1.83726 -0.23964,-0.23962 -0.35946,0.55916 -0.23964,0.63903 -0.71893,0.71895 -0.11982,1.03844 z m 51.63311,-58.80514 -0.33292,-0.17992 0.26993,-0.94479 0.89078,-0.38692 0.73782,0.43192 -0.68383,0.10798 z" fill="#F3EFE6" stroke="#0A2D25" stroke-width="2.4" stroke-linejoin="round" stroke-linecap="round"/>

  <g transform="translate(310,435) scale(1.0)">
    <path d="M0,2 C-15,-16 -15,-30 0,-30 C15,-30 15,-16 0,2 Z" fill="#0A2D25" stroke="#2b2b2b" stroke-width="0.6"/>
    <circle cx="0" cy="-19" r="6.5" fill="#F3EFE6"/>
  </g>
  <text x="330" y="428" font-size="22" fill="#0A2D25" font-weight="bold">Cundinamarca</text>
  <text x="330" y="452" font-size="15" fill="#3b3b3b" font-style="italic">Blend Castillo-Típica · Finca Barro Blanco</text>

  <g transform="translate(100,605) scale(1.0)">
    <path d="M0,2 C-15,-16 -15,-30 0,-30 C15,-30 15,-16 0,2 Z" fill="#3D1312" stroke="#2b2b2b" stroke-width="0.6"/>
    <circle cx="0" cy="-19" r="6.5" fill="#F3EFE6"/>
  </g>
  <text x="118" y="598" font-size="22" fill="#3D1312" font-weight="bold">Nariño</text>
  <text x="118" y="622" font-size="15" fill="#3b3b3b" font-style="italic">Borbón Rosado · 1800 m.s.n.m.</text>
</svg>